<?xml version="1.0" standalone="no"?>
<!DOCTYPE svg PUBLIC "-//W3C//DTD SVG 1.1//EN" "http://www.w3.org/Graphics/SVG/1.1/DTD/svg11.dtd" >
<svg xmlns="http://www.w3.org/2000/svg">
<metadata>Generated by IcoMoon</metadata>
<defs>
<font id="icomoon" horiz-adv-x="1024">
<font-face units-per-em="1024" ascent="960" descent="-64" />
<missing-glyph horiz-adv-x="1024" />
<glyph unicode="&#x20;" horiz-adv-x="512" d="" />
<glyph unicode="&#xe900;" glyph-name="arrow-right" horiz-adv-x="455" d="M19.18 155.791l324.139 324.139 92.611-92.611-324.139-324.139-92.611 92.611zM111.792 155.791c25.573-25.574 25.573-67.037 0-92.611s-67.037-25.574-92.611 0c-25.574 25.574-25.574 67.037 0 92.611s67.037 25.574 92.611 0zM435.93 479.931c25.574-25.574 25.574-67.037 0-92.611s-67.037-25.574-92.611 0c-25.574 25.574-25.574 67.037 0 92.611s67.037 25.574 92.611 0zM19.18 740.228l324.14-324.139 92.611 92.612-324.139 324.139-92.611-92.612zM111.792 740.228c25.573 25.574 25.573 67.038 0 92.612s-67.037 25.574-92.611 0c-25.574-25.574-25.574-67.038 0-92.612s67.037-25.574 92.611 0zM435.93 416.089c25.574 25.574 25.574 67.038 0 92.612s-67.037 25.574-92.611 0c-25.574-25.574-25.574-67.038 0-92.612s67.037-25.574 92.611 0z" />
<glyph unicode="&#xe901;" glyph-name="arrow-down" d="M511.999 156.096c-18.352 0-36.702 7.007-50.694 20.992l-440.297 440.301c-28.009 28.009-28.009 73.42 0 101.417 27.997 27.997 73.399 27.997 101.41 0l389.58-389.603 389.583 389.589c28.009 27.997 73.406 27.997 101.401 0 28.022-27.997 28.022-73.408 0-101.417l-440.29-440.301c-13.999-13.987-32.349-20.979-50.694-20.979z" />
<glyph unicode="&#xe902;" glyph-name="arrow-left" horiz-adv-x="455" d="M435.93 155.791l-324.139 324.139-92.611-92.611 324.139-324.139 92.611 92.611zM343.32 155.791c-25.574-25.574-25.574-67.037 0-92.611s67.037-25.574 92.611 0c25.574 25.574 25.574 67.037 0 92.611s-67.037 25.574-92.611 0zM19.18 479.931c-25.574-25.574-25.574-67.037 0-92.611s67.037-25.574 92.611 0c25.573 25.574 25.573 67.037 0 92.611s-67.037 25.574-92.611 0zM435.93 740.228l-324.139-324.139-92.611 92.612 324.139 324.139 92.611-92.612zM343.32 740.228c-25.574 25.574-25.574 67.038 0 92.612s67.037 25.574 92.611 0c25.574-25.574 25.574-67.038 0-92.612s-67.037-25.574-92.611 0zM19.18 416.089c-25.574 25.574-25.574 67.038 0 92.612s67.037 25.574 92.611 0c25.573-25.574 25.573-67.038 0-92.612s-67.037-25.574-92.611 0z" />
<glyph unicode="&#xe903;" glyph-name="arrow-full" d="M1011.487 947.503c-12.16 12.202-30.423 15.786-46.336 9.344l-938.67-384.002c-17.536-7.21-28.246-25.088-26.24-43.946 1.962-18.858 16.128-34.134 34.774-37.546l440.28-80.043 80.087-440.279c3.369-18.647 18.647-32.809 37.504-34.816 1.495-0.128 2.985-0.215 4.439-0.215 17.152 0 32.896 10.368 39.511 26.537l384 938.672c6.482 15.874 2.811 34.134-9.349 46.294z" />
<glyph unicode="&#xe904;" glyph-name="bullet" d="M184.243 817.6c-204.025-165.108-235.6-464.383-70.522-668.447l74.131 61.316c-54.717 67.103-84.596 151.047-84.585 237.641 0 209.996 170.203 380.231 380.161 380.231v95.056c-108.905 0.065-214.524-37.284-299.185-105.797zM483.428 923.396c-17.152 0.225-34.301-0.729-51.324-2.852-18.24-1.776-36.341-4.792-54.173-9.030l57.975-67.967c93.981-105.79 121.443-255.033 71.28-387.359-58.309-146.361-198.896-243.291-356.4-245.72l-83.159 5.222 35.64-52.751 25.661-31.371c70.424-78.972 165.182-132.176 269.26-151.186 258.176-47.155 505.689 123.948 552.837 382.175 5.171 28.276 7.775 56.963 7.76 85.71-0.088 262.492-212.912 475.216-475.358 475.129zM800.731 236.249c-116.721-174.553-352.821-221.422-527.343-104.679 36.558 9.808 71.815 23.954 105.016 42.13 230.21 126.045 314.677 414.879 188.658 645.132 46.049-10.217 89.795-28.918 129.004-55.145 174.525-116.74 221.387-352.883 104.666-527.438zM800.731 236.249c-116.721-174.553-352.821-221.422-527.343-104.679 36.558 9.808 71.815 23.954 105.016 42.13 230.21 126.045 314.677 414.879 188.658 645.132 46.049-10.217 89.795-28.918 129.004-55.145 174.525-116.74 221.387-352.883 104.666-527.438z" />
<glyph unicode="&#xe905;" glyph-name="bell" d="M860.809 261.091c-13.883 10.737-28.184 50.547-36.874 106.993-7.621 49.523-10.147 100.323-10.030 135.942l0.005 122.285c0 179.506-145.54 325.564-324.835 325.564s-324.835-146.058-324.835-325.566v-121.813c0.013-9.199-0.314-24.503-1.317-43.886-1.639-31.676-4.606-63.23-9.189-92.399-8.879-56.496-23.297-96.354-37.292-107.188-31.38-24.157-22.825-75.693 18.323-84.924 0.771-0.171 1.54-0.322 2.309-0.449 0.069-0.015 0.135-0.020 0.202-0.029 49.882-10.445 100.062-18.647 150.393-24.605 13.921-98.558 98.604-174.377 201.001-174.377 102.374 0 187.039 75.786 200.99 174.309 50.488 5.978 100.742 14.204 150.601 24.703 0.77 0.127 1.541 0.278 2.311 0.453 41.145 9.226 49.703 60.762 18.237 84.987zM488.667 57.846c-54.542 0-100.715 35.855-116.236 85.28 77.494-5.296 155.152-5.305 232.451-0.054-15.536-49.396-61.692-85.226-116.215-85.226zM650.82 228.376c-1.477 0.020-2.974-0.039-4.486-0.185-104.862-10.22-210.473-10.22-315.333 0-1.515 0.146-3.018 0.205-4.505 0.185-41.171 4.125-82.212 9.811-123.021 17.086 13.915 28.696 23.498 65.707 30.482 110.143 8.7 55.364 11.548 110.387 11.491 148.882v121.821c0 134.723 109.245 244.357 243.626 244.357 134.383 0 243.624-109.633 243.624-244.357v-121.813c-0.132-39.683 2.58-94.238 10.976-148.768 6.846-44.485 16.34-81.54 30.208-110.26-40.819-7.275-81.876-12.966-123.060-17.091zM488.663 829.342c-111.997 0-203.022-91.023-203.022-203.022 0-22.425 18.178-40.604 40.604-40.604s40.604 18.178 40.604 40.604c0 67.148 54.666 121.813 121.813 121.813 22.425 0 40.604 18.178 40.604 40.604s-18.176 40.606-40.602 40.606z" />
<glyph unicode="&#xe906;" glyph-name="calendar" d="M984.003 256c22.091 0 39.997 17.906 39.997 40v424c0 88.224-71.776 159.999-160.003 159.999h-51.999v40c0 22.092-17.906 40-39.997 40s-39.997-17.908-39.997-40v-40h-182.003v40c0 22.092-17.908 40-40 40s-39.999-17.908-39.999-40v-40h-180v40c0 22.092-17.908 40-40 40s-40-17.908-40-40v-40h-50c-88.224 0-160-71.776-160-159.999v-623.997c0-88.228 71.776-160.003 160-160.003h703.997c88.228 0 160.003 71.776 160.003 160.003 0 22.091-17.906 39.997-39.997 39.997-22.098 0-40.004-17.906-40.004-39.997 0-44.114-35.888-80.002-80.002-80.002h-703.997c-44.112 0-80 35.888-80 80.002v623.997c0 44.112 35.888 80 80 80h50v-40c0-22.092 17.908-39.999 40-39.999s40 17.908 40 39.999v40h180v-40c0-22.092 17.908-39.999 39.999-39.999s40 17.908 40 39.999v40h182.003v-40c0-22.092 17.906-39.999 39.997-39.999s39.997 17.908 39.997 39.999v40h51.999c44.114 0 80.002-35.888 80.002-80v-424c0-22.094 17.906-40 40.004-40zM250 500c22.091 0 40 17.908 40 40s-17.909 39.999-40 39.999c-22.091 0-40-17.908-40-39.999s17.909-40 40-40zM598 500c22.091 0 39.999 17.908 39.999 40s-17.908 39.999-39.999 39.999c-22.092 0-40-17.908-40-39.999s17.908-40 40-40zM772 500c22.091 0 39.997 17.908 39.997 40s-17.906 39.999-39.997 39.999c-22.091 0-39.997-17.908-39.997-39.999s17.906-40 39.997-40zM250 326c22.091 0 40 17.908 40 40s-17.909 40-40 40c-22.091 0-40-17.909-40-40s17.909-40 40-40zM250 152.003c22.091 0 40 17.906 40 39.997s-17.909 39.997-40 39.997c-22.091 0-40-17.906-40-39.997s17.909-39.997 40-39.997zM424 500c22.091 0 40 17.908 40 40s-17.909 39.999-40 39.999c-22.092 0-40-17.908-40-39.999s17.908-40 40-40zM424 326c22.091 0 40 17.908 40 40s-17.909 40-40 40c-22.092 0-40-17.909-40-40s17.908-40 40-40zM424 152.003c22.091 0 40 17.906 40 39.997s-17.909 39.997-40 39.997c-22.092 0-40-17.906-40-39.997s17.908-39.997 40-39.997zM598 326c22.091 0 39.999 17.908 39.999 40s-17.908 40-39.999 40c-22.092 0-40-17.909-40-40s17.908-40 40-40zM772 326c22.091 0 39.997 17.908 39.997 40s-17.906 40-39.997 40c-22.091 0-39.997-17.909-39.997-40s17.906-40 39.997-40zM598 152.003c22.091 0 39.999 17.906 39.999 39.997s-17.908 39.997-39.999 39.997c-22.092 0-40-17.906-40-39.997s17.908-39.997 40-39.997z" />
<glyph unicode="&#xe907;" glyph-name="cash" horiz-adv-x="1092" d="M849.954 705.906h-811.832c-21.052 0-38.114-17.062-38.114-38.114v-456.111c0-21.053 17.062-38.113 38.114-38.113h635.237v76.24h-597.122v379.869h735.603v-262.988h76.233v301.103c-0.007 21.052-17.067 38.114-38.12 38.114zM449.757 592.82c-84.068 0-152.457-68.39-152.457-152.457s68.39-152.457 152.457-152.457c84.067 0 152.457 68.39 152.457 152.457s-68.39 152.457-152.457 152.457zM449.757 364.148c-42.041 0-76.23 34.201-76.23 76.229s34.189 76.23 76.23 76.23c42.026 0 76.229-34.189 76.229-76.23s-34.191-76.229-76.229-76.229zM773.728 832.953h-659.376c-21.051 0-38.114-17.062-38.114-38.114s17.063-38.113 38.114-38.113h659.376c21.060 0 38.113 17.062 38.113 38.113s-17.060 38.114-38.113 38.114zM697.494 960h-506.915c-21.051 0-38.113-17.062-38.113-38.114s17.062-38.114 38.113-38.114h506.915c21.067 0 38.12 17.062 38.12 38.114s-17.067 38.114-38.12 38.114zM833.44 403.533c-98.659 0-198.197-29.856-198.197-96.556s99.538-96.552 198.197-96.552c98.652 0 198.205 29.839 198.205 96.541 0 66.699-99.54 96.567-198.205 96.567zM833.44 286.637c-55.385 0-94.959 11.016-113.357 20.328 18.398 9.337 57.958 20.34 113.357 20.34 55.392 0 94.952-11.003 113.364-20.34-18.398-9.327-57.972-20.328-113.364-20.328zM955.406 172.305c0 4.089 1.481 6.936 2.021 7.598-7.311-9.428-52.552-27.921-123.986-27.921-71.694 0-116.709 18.166-123.849 27.443 0.498-0.635 1.884-3.304 1.884-7.12h-76.232c0-66.697 99.538-96.55 198.197-96.55 98.652 0 198.192 29.853 198.192 96.55h-76.227zM955.419 306.964v-269.212c-11.271-9.646-54.975-25.511-121.979-25.511-66.587 0-110.408 16.070-121.965 25.88v268.857h-76.23v-274.421c0-66.697 99.543-96.556 198.195-96.556s198.192 29.86 198.205 96.543v274.421h-76.227z" />
<glyph unicode="&#xe908;" glyph-name="dot" horiz-adv-x="228" d="M96.048 935.618h6.020c44.884 0 81.27-36.386 81.27-81.27s-36.386-81.27-81.27-81.27h-6.020c-44.884 0-81.27 36.386-81.27 81.27s36.386 81.27 81.27 81.27zM96.048 529.264h6.020c44.884 0 81.27-36.386 81.27-81.27s-36.386-81.27-81.27-81.27h-6.020c-44.884 0-81.27 36.386-81.27 81.27s36.386 81.27 81.27 81.27zM96.048 122.914h6.020c44.884 0 81.27-36.386 81.27-81.27s-36.386-81.27-81.27-81.27h-6.020c-44.884 0-81.27 36.386-81.27 81.27s36.386 81.27 81.27 81.27z" />
<glyph unicode="&#xe909;" glyph-name="eye" d="M42.666 618.666c23.564 0 42.666 19.102 42.666 42.666v213.334h213.334c23.564 0 42.666 19.102 42.666 42.666 0.002 23.566-19.102 42.668-42.666 42.668h-256c-23.564 0-42.666-19.102-42.666-42.666v-256c0-23.564 19.102-42.668 42.666-42.668zM981.333 960h-256c-23.566 0-42.667-19.102-42.667-42.666s19.101-42.666 42.667-42.666h213.333v-213.334c0-23.564 19.101-42.666 42.667-42.666s42.667 19.102 42.667 42.666v256c0 23.564-19.101 42.666-42.667 42.666zM981.333 277.334c-23.566 0-42.667-19.102-42.667-42.667v-213.333h-213.333c-23.566 0-42.667-19.101-42.667-42.667s19.101-42.667 42.667-42.667h256c23.566 0 42.667 19.101 42.667 42.667v256c0 23.566-19.101 42.667-42.667 42.667zM298.666 21.333h-213.332v213.333c0 23.566-19.102 42.667-42.666 42.667-23.566 0.001-42.668-19.101-42.668-42.667v-256c0-23.566 19.102-42.667 42.666-42.667h256c23.564 0 42.666 19.101 42.666 42.667s-19.102 42.667-42.666 42.667zM967.216 479.71c18.821-16.95 18.821-46.472 0-63.42l-96.263-86.662c-204.089-183.647-513.817-183.647-717.911 0.005l-96.256 86.656c-18.826 16.95-18.826 46.472 0 63.42l96.264 86.662c204.086 183.646 513.815 183.646 717.91-0.005l96.256-86.656zM210.13 393.060c42.329-38.090 90.070-66.768 140.542-86.071 60.707-22.338 210.229-53.611 322.656-0.002 50.47 19.302 98.208 47.978 140.534 86.067l61.037 54.946-61.024 54.94c-171.639 154.444-432.109 154.444-603.737 0.005l-61.034-54.946 61.026-54.94zM588 456c0-41.974-34.026-76-76-76s-76 34.026-76 76c0 41.974 34.026 76 76 76s76-34.026 76-76z" />
<glyph unicode="&#xe90a;" glyph-name="filter" d="M983.956 960h-943.956c-22.094 0-40-17.906-40-40 0-111.391 47.75-217.735 131.008-291.743l175.18-155.704c30.375-27.001 47.797-65.795 47.797-106.448v-390.062c0-31.872 35.625-50.985 62.18-33.275l235.995 157.322c11.121 7.424 17.812 19.907 17.812 33.28v232.735c0 40.653 17.418 79.447 47.795 106.448l175.171 155.704c83.261 74.008 131.011 180.351 131.011 291.743 0 22.094-17.91 40-39.992 40zM839.793 688.054l-175.176-155.711c-47.437-42.172-74.644-102.759-74.644-166.227v-211.338l-155.995-103.992v315.32c0 63.478-27.211 124.065-74.649 166.237l-175.172 155.703c-56.141 49.914-91.977 118.305-101.571 191.962h858.777c-9.595-73.656-45.425-142.047-101.571-191.953z" />
<glyph unicode="&#xe90b;" glyph-name="gallery" horiz-adv-x="1097" d="M960 731.428h-91.429v91.429c0 75.611-61.535 137.143-137.144 137.143h-594.285c-75.611 0-137.143-61.532-137.143-137.143v-457.142c0-75.611 61.532-137.143 137.143-137.143h91.429v-91.429c0-75.608 61.532-137.143 137.143-137.143h594.285c75.608 0 137.143 61.535 137.143 137.143v457.142c0 75.613-61.535 137.143-137.143 137.143zM91.429 822.857c0 25.234 20.526 45.714 45.714 45.714h594.285c25.191 0 45.715-20.479 45.715-45.714v-295.954l-178.79 130.378c-12.251 8.914-28.069 11.29-42.195 6.171l-464.728-164.526v323.931zM137.143 319.999c-25.189 0-45.714 20.479-45.714 45.714v36.298l472.549 167.269 213.165-155.519v-48.045c0-25.234-20.524-45.714-45.714-45.714l-594.286-0.002zM1005.714 137.143c0-25.234-20.48-45.714-45.714-45.714h-594.285c-25.189 0-45.714 20.48-45.714 45.714v91.429h411.427c75.615 0 137.143 61.532 137.143 137.143v274.286h91.429c25.234 0 45.714-20.479 45.714-45.714v-457.144zM251.428 642.744c37.871 0 68.571 30.7 68.571 68.571s-30.7 68.571-68.571 68.571c-37.871 0-68.571-30.7-68.571-68.571s30.7-68.571 68.571-68.571z" />
<glyph unicode="&#xe90c;" glyph-name="global" d="M929.362 743.468c-0.020 0.33-0.056 0.66-0.113 0.988-1.28 1.828-2.852 3.402-4.168 5.194-9.564 13.024-19.686 25.559-30.367 37.607-2.929 3.293-5.852 6.548-8.852 9.768-10.998 11.779-22.538 23.010-34.611 33.691-2.232 1.976-4.316 4.023-6.548 5.963-29.752 25.488-62.331 47.484-97.096 65.554-1.393 0.731-2.852 1.352-4.28 2.085-15.483 7.867-31.355 14.938-47.56 21.182-3.661 1.316-6.989 2.561-10.465 3.659-14.413 5.194-29.046 9.742-43.899 13.645-4.393 1.17-8.781 2.377-13.245 3.402-14.633 3.402-29.266 6-44.232 8.122-4.536 0.658-8.996 1.537-13.573 2.086-38.538 4.683-77.504 4.683-116.046 0-4.572-0.549-9.035-1.428-13.573-2.086-14.963-2.122-29.743-4.72-44.232-8.122-4.463-1.025-8.854-2.231-13.243-3.402-14.952-3.901-29.584-8.45-43.901-13.645-3.659-1.243-6.988-2.489-10.463-3.659-16.204-6.244-32.079-13.313-47.561-21.182-1.427-0.731-2.89-1.353-4.281-2.085-34.879-18.050-67.567-40.045-97.425-65.554-2.232-1.937-4.318-3.986-6.549-5.963-12.195-10.73-23.732-21.962-34.609-33.691-2.999-3.219-5.927-6.475-8.854-9.768-10.707-12.022-20.83-24.558-30.364-37.605-1.316-1.792-2.89-3.365-4.172-5.193-0.167-0.319-0.315-0.65-0.439-0.988-126.187-176.829-126.187-414.263 0-591.088 0.124-0.338 0.27-0.671 0.439-0.988 1.28-1.828 2.853-3.4 4.172-5.192 9.537-13.025 19.657-25.559 30.364-37.612 2.926-3.292 5.854-6.548 8.854-9.764 11.024-11.781 22.559-23.014 34.609-33.695 2.231-1.976 4.317-4.019 6.549-5.96 29.753-25.487 62.332-47.488 97.095-65.556 1.392-0.727 2.853-1.352 4.281-2.084 15.481-7.864 31.355-14.94 47.561-21.181 3.659-1.316 6.988-2.56 10.463-3.661 14.414-5.192 29.048-9.738 43.901-13.645 4.39-1.167 8.78-2.376 13.243-3.4 14.634-3.405 29.267-6.001 44.232-8.12 4.536-0.66 8.999-1.541 13.573-2.089 38.54-4.685 77.506-4.685 116.049 0 4.572 0.548 9.032 1.428 13.573 2.089 14.961 2.12 29.742 4.716 44.232 8.12 4.46 1.024 8.852 2.232 13.24 3.4 14.976 3.901 29.614 8.448 43.904 13.645 3.661 1.244 6.989 2.488 10.46 3.661 16.205 6.241 32.082 13.312 47.565 21.181 1.423 0.732 2.888 1.352 4.28 2.084 34.76 18.074 67.338 40.069 97.096 65.556 2.232 1.94 4.316 3.983 6.548 5.96 12.196 10.711 23.731 21.939 34.606 33.695 3 3.215 5.929 6.472 8.852 9.764 10.711 12.052 20.833 24.586 30.367 37.612 1.316 1.792 2.888 3.364 4.173 5.192 0.164 0.317 0.312 0.65 0.44 0.988 126.182 176.824 126.182 414.256 0 591.085zM887.619 674.253c34.985-57.618 56.115-122.574 61.716-189.75h-219.141c-2.683 43.59-9.544 86.819-20.485 129.097 61.901 11.592 121.815 32.019 177.91 60.654zM605.256 876.808c2.048-0.476 4.024-1.134 6.072-1.61 13.097-3.074 26.086-6.585 38.784-10.974 1.935-0.658 3.84-1.428 5.745-2.122 12.585-4.39 24.986-9.255 37.13-14.633 2.125-0.988 4.209-2.085 6.333-3.074 11.633-5.537 22.999-11.524 34.094-17.962l7.316-4.426c10.537-6.439 20.782-13.328 30.73-20.669 2.565-1.865 5.12-3.659 7.649-5.706 9.754-7.315 19.098-15.157 28.022-23.522 2.34-2.122 4.756-4.208 7.060-6.403 9.364-8.889 18.294-18.29 26.926-28.022 1.101-1.279 2.268-2.45 3.364-3.659-49.536-23.606-102.011-40.462-156.032-50.116-25.021 68.788-58.081 134.382-98.483 195.419 5.079-0.913 10.276-1.425 15.288-2.521zM367.164 484.505c2.885 39.581 9.625 78.788 20.122 117.061 41.451-4.923 83.158-7.365 124.898-7.316 41.784 0.013 83.528 2.516 125.010 7.5 10.481-38.336 17.183-77.604 20.014-117.245h-290.044zM657.208 411.342c-2.888-39.583-9.626-78.787-20.122-117.064-41.452 4.925-83.159 7.368-124.902 7.316-41.779 0.046-83.522-2.396-125.010-7.316-10.467 38.277-17.168 77.481-20.013 117.064h290.047zM512.184 863.052c41.636-59.003 75.873-122.889 101.96-190.226-33.864-3.596-67.901-5.404-101.96-5.414-34.021 0.040-68.019 1.858-101.852 5.451 26.118 67.292 60.319 131.156 101.852 190.19zM183.29 737.724c8.598 9.731 17.561 19.132 26.926 28.021 2.305 2.195 4.72 4.281 7.061 6.403 9.025 8.218 18.366 16.059 28.024 23.522 2.525 1.94 5.085 3.659 7.646 5.706 9.951 7.315 20.195 14.206 30.731 20.669l7.316 4.426c11.098 6.486 22.463 12.475 34.097 17.962 2.122 0.988 4.208 2.085 6.33 3.074 12.146 5.488 24.549 10.353 37.134 14.633 1.902 0.695 3.659 1.464 5.743 2.122 12.695 4.244 25.61 7.755 38.78 10.975 2.050 0.476 4.024 1.134 6.109 1.573 5.012 1.098 10.208 1.61 15.293 2.525-40.42-61.048-73.488-126.655-98.523-195.456-54.018 9.654-106.498 26.51-156.033 50.116 1.097 1.278 2.268 2.448 3.365 3.728zM136.754 674.253c56.079-28.633 115.983-49.060 177.874-60.654-10.93-42.28-17.779-85.51-20.45-129.097h-219.141c5.603 67.176 26.731 132.132 61.717 189.75zM136.754 221.59c-34.988 57.62-56.116 122.573-61.717 189.752h219.141c2.684-43.592 9.544-86.82 20.487-129.096-61.901-11.592-121.818-32.020-177.91-60.657zM419.114 19.037c-2.050 0.476-4.024 1.132-6.073 1.608-13.097 3.077-26.086 6.584-38.78 10.977-1.94 0.655-3.842 1.428-5.745 2.12-12.585 4.393-24.986 9.257-37.134 14.633-2.122 0.988-4.208 2.089-6.33 3.077-11.633 5.535-22.999 11.52-34.096 17.961l-7.316 4.424c-10.536 6.441-20.78 13.332-30.731 20.669-2.562 1.869-5.122 3.661-7.647 5.709-9.756 7.316-19.098 15.155-28.023 23.521-2.341 2.125-4.757 4.209-7.061 6.405-9.366 8.888-18.292 18.289-26.927 28.022-1.097 1.28-2.268 2.447-3.365 3.656 49.537 23.608 102.015 40.463 156.033 50.12 25.025-68.792 58.082-134.385 98.485-195.42-5.083 0.911-10.276 1.423-15.288 2.519zM512.184 32.79c-41.633 59.003-75.876 122.89-101.962 190.228 67.753 7.291 136.097 7.291 203.85 0l-0.036-0.036c-26.117-67.292-60.319-131.154-101.852-190.193zM841.083 158.122c-8.602-9.733-17.562-19.133-26.926-28.022-2.304-2.196-4.721-4.28-7.060-6.4-9.027-8.248-18.371-16.087-28.027-23.526-2.524-1.935-5.084-3.84-7.644-5.704-9.953-7.316-20.198-14.208-30.73-20.669l-7.316-4.429c-11.075-6.461-22.441-12.447-34.099-17.961-2.12-0.988-4.209-2.084-6.328-3.072-12.145-5.489-24.55-10.353-37.135-14.633-1.9-0.696-3.661-1.464-5.745-2.125-12.692-4.244-25.61-7.752-38.779-10.972-2.048-0.476-4.024-1.137-6.108-1.572-5.012-1.101-10.209-1.613-15.293-2.529 40.402 61.041 73.462 126.633 98.483 195.42 54.021-9.651 106.501-26.511 156.032-50.115-1.055-1.239-2.227-2.412-3.323-3.692zM887.619 221.59c-56.079 28.631-115.983 49.060-177.874 60.657 10.931 42.276 17.777 85.509 20.449 129.096h219.141c-5.606-67.174-26.732-132.132-61.716-189.752z" />
<glyph unicode="&#xe90d;" glyph-name="close" d="M765.312 64.462l-636.84 636.841c-35.963 35.963-35.963 94.271 0 130.234s94.271 35.964 130.235 0l636.84-636.84c35.963-35.963 35.963-94.271 0-130.235-35.963-35.963-94.271-35.963-130.235 0zM128.476 194.703l636.841 636.84c35.963 35.963 94.271 35.963 130.234 0s35.964-94.271 0-130.235l-636.84-636.84c-35.963-35.963-94.271-35.963-130.235 0-35.963 35.964-35.963 94.272 0 130.235z" />
<glyph unicode="&#xe90e;" glyph-name="global-2" horiz-adv-x="956" d="M474.117 816.264c-182.174 0-330.385-148.21-330.385-330.385s148.21-330.381 330.385-330.381c182.174 0 330.385 148.208 330.385 330.381s-148.212 330.385-330.385 330.385zM217.644 450.163h60.892c3.926-63.528 18.298-123.152 41.588-172.332-54.58 40.502-92.724 101.943-102.48 172.332zM278.536 521.598h-60.892c9.756 70.394 47.9 131.83 102.48 172.332-23.29-49.177-37.66-108.801-41.588-172.332zM438.398 238.128c-47.876 30.938-81.068 121.339-88.146 212.036h88.146v-212.036zM438.398 521.598h-88.326c7.279 104.312 45.786 182.118 88.326 210.98v-210.98zM730.59 521.602h-60.893c-3.926 63.528-18.298 123.152-41.588 172.332 54.579-40.506 92.726-101.942 102.481-172.332zM509.835 733.634c47.874-30.934 81.066-121.339 88.146-212.032h-88.146v212.032zM509.835 239.186v210.979h88.328c-7.278-104.314-45.786-182.123-88.328-210.979zM628.109 277.831c23.29 49.179 37.66 108.804 41.588 172.332h60.893c-9.755-70.39-47.903-131.83-102.481-172.332zM861.321 212.193c219.525 309.174 0.594 747.807-387.204 747.807-261.431 0-474.117-212.688-474.117-474.119 0-343.095 354.213-571.815 665.595-433.848l220.261-112.080c28.099-14.281 60.081 12.459 50.162 42.899l-74.697 229.342zM682.491 123.59c-9.982 5.079-21.778 5.188-31.882 0.253-264.368-129.188-579.172 62.143-579.172 362.039 0 222.039 180.642 402.68 402.68 402.68 335.342 0 521.286-385.86 319.244-648.14-7.195-9.346-9.318-21.641-5.666-32.857l53.685-164.823-158.889 80.848z" />
<glyph unicode="&#xe90f;" glyph-name="gps" d="M0 448.003c0 29.254 23.715 52.969 52.969 52.969h56.492c24.125 182.132 167.437 325.445 349.57 349.57v56.492c0 29.254 23.715 52.969 52.969 52.969s52.968-23.715 52.968-52.969v-56.492c182.132-24.125 325.449-167.437 349.572-349.57h56.492c29.254 0 52.968-23.715 52.968-52.969s-23.714-52.967-52.968-52.967h-56.492c-24.123-182.137-167.44-325.449-349.572-349.572v-56.492c0-29.254-23.714-52.968-52.968-52.968s-52.969 23.714-52.969 52.968v56.492c-182.133 24.123-325.445 167.435-349.57 349.572h-56.492c-29.254 0-52.969 23.714-52.969 52.967zM812.14 448.003c0 165.758-134.381 300.14-300.14 300.14-165.664-0.234-299.906-134.477-300.141-300.14 0-165.758 134.383-300.139 300.141-300.139s300.14 134.381 300.14 300.139zM653.242 448.003c0-78.006-63.235-141.241-141.242-141.241s-141.242 63.235-141.242 141.241c0 78.008 63.234 141.242 141.242 141.242s141.242-63.234 141.242-141.242z" />
<glyph unicode="&#xe910;" glyph-name="heart-2" horiz-adv-x="1152" d="M1029.869 839.283c-118.317 118.286-310.899 118.286-429.257 0.026l-24.61-24.557-24.584 24.546c-118.369 118.275-310.926 118.261-429.295 0-58.119-58.076-90.124-135.108-90.124-216.883 0-81.803 32.004-158.821 90.132-216.922l427.59-426.479c7.355-7.354 16.824-11.014 26.278-11.014s18.91 3.68 26.278 11.027l427.591 426.466c58.112 58.087 90.131 135.116 90.131 216.908 0 81.789-32.019 158.808-90.131 216.881zM977.261 463.647l-401.261-400.236-401.249 400.222c-42.821 42.779-66.4 99.169-66.4 158.768s23.579 115.988 66.4 158.767c44.665 44.652 103.328 66.963 162.003 66.963 58.689 0 117.377-22.339 162.042-66.99l50.9-50.789c14.735-14.719 37.857-14.719 52.594 0l50.913 50.816c89.344 89.29 234.701 89.29 324.045 0 42.81-42.781 66.4-99.169 66.4-158.767s-23.59-115.976-66.387-158.755z" />
<glyph unicode="&#xe911;" glyph-name="hospital" horiz-adv-x="1195" d="M1099.696 23.758v573.687c0 16.185-14.433 29.306-32.239 29.306h-127.841v275.504c0 16.185-14.433 29.306-32.239 29.306h-603.877c-17.804 0-32.237-13.121-32.237-29.306v-275.504h-127.842c-17.804 0-32.237-13.121-32.237-29.306v-573.687h-27.933c-17.805 0-32.237-13.119-32.237-29.303v-0.7c0-16.185 14.433-29.303 32.237-29.303h1044.378c17.806 0 32.239 13.119 32.239 29.303v0.7c0 16.185-14.433 29.303-32.239 29.303h-27.932zM512.411 23.758v143.002h186.060v-143.002h-186.060zM176.426 567.441h94.838v-543.683h-94.838v543.683zM874.382 872.251v-730.528h-110.672v55.051c0 16.185-14.433 29.309-32.239 29.309h-252.066c-17.804 0-32.237-13.124-32.237-29.309v-55.051h-110.664v730.528h537.877zM336.497 82.405h110.673v-58.647h-110.673v58.647zM763.711 82.405h110.672v-58.647h-110.672v58.647zM939.622 567.441h94.839v-543.683h-94.839v543.683zM572.82 678.154c0-16.185 14.433-29.306 32.233-29.306h0.768c17.806 0 32.239 13.121 32.239 29.306v14.845h16.327c17.806 0 32.239 13.121 32.239 29.306v0.698c0 16.185-14.433 29.306-32.239 29.306h-16.327v14.844c0 16.186-14.433 29.307-32.239 29.307h-0.768c-17.801 0-32.233-13.121-32.233-29.307v-14.844h-16.33c-17.804 0-32.237-13.121-32.237-29.306v-0.698c0-16.185 14.433-29.306 32.237-29.306h16.33v-14.845zM456.837 550.869c0 16.185 14.433 29.306 32.237 29.306h0.767c17.804 0 32.237-13.121 32.237-29.306v-25.743c0-16.185-14.433-29.306-32.237-29.306h-0.767c-17.804 0-32.237 13.121-32.237 29.306v25.743zM688.799 550.869c0 16.185 14.433 29.306 32.239 29.306h0.768c17.806 0 32.239-13.121 32.239-29.306v-25.743c0-16.185-14.433-29.306-32.239-29.306h-0.768c-17.806 0-32.239 13.121-32.239 29.306v25.743zM456.837 382.164c0 16.188 14.433 29.309 32.237 29.309h0.767c17.804 0 32.237-13.121 32.237-29.309v-25.742c0-16.185-14.433-29.303-32.237-29.303h-0.767c-17.804 0-32.237 13.119-32.237 29.303v25.742zM688.799 382.164c0 16.188 14.433 29.309 32.239 29.309h0.768c17.806 0 32.239-13.121 32.239-29.309v-25.742c0-16.185-14.433-29.303-32.239-29.303h-0.768c-17.806 0-32.239 13.119-32.239 29.303v25.742z" />
<glyph unicode="&#xe912;" glyph-name="hospital-2" horiz-adv-x="1161" d="M1093.871 16.527h-62.901v705.477c0 22.236-18.541 40.263-41.424 40.263h-179.063v157.469c0 22.236-18.541 40.264-41.424 40.264h-406.888c-22.884 0-41.426-18.027-41.426-40.264v-157.469h-174.995c-22.878 0-41.426-18.027-41.426-40.263v-705.477h-62.897c-22.884 0-41.426-18.029-41.426-40.264s18.543-40.264 41.426-40.264h1052.444c22.883 0 41.424 18.029 41.424 40.264s-18.548 40.264-41.424 40.264zM403.597 879.473h324.030v-314.937h-324.030v314.937zM454.452 16.527v210.207h69.734v-210.207h-69.734zM607.039 16.527v210.207h69.723v-210.207h-69.723zM759.617 16.527v250.47c0 22.238-18.541 40.265-41.424 40.265h-305.167c-22.884 0-41.427-18.027-41.427-40.265v-250.47h-184.422v665.214h133.568v-157.469c0-22.237 18.542-40.264 41.426-40.264h406.888c22.883 0 41.424 18.027 41.424 40.264v157.469h137.639v-665.214h-188.505zM478.54 681.741h45.647v-44.365c0-22.237 18.543-40.264 41.427-40.264s41.426 18.027 41.426 40.264v44.365h45.647c22.884 0 41.429 18.027 41.429 40.264s-18.545 40.263-41.429 40.263h-45.647v44.365c0 22.237-18.543 40.264-41.426 40.264s-41.427-18.027-41.427-40.264v-44.365h-45.647c-22.884 0-41.426-18.027-41.426-40.263s18.548-40.264 41.426-40.264z" />
<glyph unicode="&#xe913;" glyph-name="hospital-3" horiz-adv-x="1161" d="M866.918 402.618v-396.801h-626.037v404.948h-69.818v-439.852c0-19.285 15.628-34.912 34.908-34.912h695.859c19.279 0 34.905 15.626 34.905 34.912v431.706h-69.816zM1107.674 468.234c-0.765 9.611-5.482 18.48-13.018 24.495l-518.986 414.257c-12.753 10.171-30.826 10.171-43.554 0l-518.984-414.257c-7.54-6.015-12.253-14.883-13.021-24.495s2.48-19.118 8.96-26.251l103.565-114.037c6.866-7.565 16.338-11.439 25.856-11.439 7.668 0 15.394 2.525 21.807 7.657l393.601 315.322 393.581-315.322c14.418-11.498 35.28-9.89 47.671 3.782l103.567 114.037c6.492 7.133 9.728 16.641 8.957 26.251zM965.523 399.184l-389.805 312.274c-6.365 5.108-14.092 7.668-21.818 7.668s-15.453-2.559-21.829-7.668l-389.821-312.274-56.482 62.198 468.132 373.667 468.121-373.667-56.497-62.198zM877.391 960h-137.325c-19.279 0-34.905-15.628-34.905-34.908v-197.82h69.816v162.912h67.502v-267.636h69.823v302.544c0 19.282-15.633 34.908-34.912 34.908zM553.899 402.618c-19.282 0-34.908-15.628-34.908-34.908v-235.054c0-19.285 15.628-34.912 34.908-34.912s34.897 15.626 34.908 34.912v235.054c0 19.28-15.628 34.908-34.908 34.908zM671.427 285.090h-235.054c-19.283 0-34.908-15.628-34.908-34.907 0-19.285 15.628-34.912 34.908-34.912h235.056c19.28 0 34.906 15.633 34.906 34.912s-15.626 34.907-34.908 34.907z" />
<glyph unicode="&#xe914;" glyph-name="info-2" d="M512 960c-282.317 0-512-229.687-512-512.003 0-282.313 229.683-511.997 512-511.997s512 229.683 512 511.997c0 282.317-229.683 512.003-512 512.003zM512 29.088c-230.99 0-418.909 187.924-418.909 418.908 0 230.987 187.919 418.912 418.909 418.912 230.987 0 418.912-187.925 418.912-418.912 0-230.984-187.924-418.908-418.912-418.908zM511.994 742.788c-34.214 0-62.048-27.853-62.048-62.089 0-34.204 27.834-62.033 62.048-62.033s62.048 27.828 62.048 62.033c0 34.236-27.834 62.089-62.048 62.089zM512 525.576c-25.706 0-46.546-20.84-46.546-46.545v-279.276c0-25.702 20.84-46.544 46.546-46.544s46.546 20.842 46.546 46.544v279.276c0 25.705-20.84 46.545-46.546 46.545z" />
<glyph unicode="&#xe915;" glyph-name="light" horiz-adv-x="1161" d="M580.217 746.871c21.877 0 39.603 19.702 39.603 44.003v125.122c0 24.302-17.726 44.003-39.603 44.003-21.872 0-39.604-19.702-39.604-44.003v-125.122c0-24.302 17.732-44.003 39.604-44.003zM882.927 607.597c10.131 0 20.268 4.295 28.003 12.884l79.64 88.453c15.462 17.185 15.469 45.042 0.007 62.233s-40.537 17.196-56.006 0.005l-79.64-88.452c-15.469-17.179-15.469-45.042-0.014-62.226 7.735-8.602 17.872-12.896 28.010-12.896zM191.805 315.251c0 24.302-17.732 44.003-39.603 44.003h-112.6c-21.871 0-39.603-19.702-39.603-44.003s17.732-44.007 39.603-44.007h112.6c21.871 0 39.603 19.704 39.603 44.007zM1120.959 359.254h-112.654c-21.879 0-39.601-19.702-39.601-44.003s17.722-44.007 39.601-44.007h112.654c21.873 0 39.601 19.704 39.601 44.007 0 24.295-17.729 44.003-39.601 44.003zM249.589 620.481c7.731-8.589 17.869-12.884 28.002-12.884s20.271 4.295 28.002 12.884c15.466 17.185 15.466 45.048 0 62.233l-79.607 88.453c-15.466 17.185-40.543 17.185-56.004 0-15.466-17.185-15.466-45.048 0-62.227l79.607-88.459zM273.067-19.108c0 24.788 18.088 44.885 40.4 44.885h533.6c22.31 0 40.4-20.098 40.4-44.885 0-24.794-18.091-44.892-40.4-44.892h-533.6c-22.312 0-40.4 20.098-40.4 44.892zM580.258 657.755c169.972 0 308.259-153.648 308.259-342.505 0-39.863-6.158-78.161-17.483-113.768h180.299c22.603 0 40.933-20.364 40.933-45.479 0-25.122-18.33-45.486-40.933-45.486h-942.134c-22.607 0-40.933 20.364-40.933 45.486 0 25.115 18.326 45.479 40.933 45.479h180.305c-11.319 35.608-17.48 73.905-17.48 113.768 0 188.856 138.273 342.505 308.233 342.505zM580.258 569.749c-126.286 0-229.027-114.168-229.027-254.498 0-40.866 8.714-79.512 24.186-113.768h409.704c15.476 34.256 24.194 72.902 24.194 113.768 0 140.33-102.755 254.498-229.057 254.498z" />
<glyph unicode="&#xe916;" glyph-name="list" horiz-adv-x="1182" d="M0 846.652c0 27.419 22.227 49.646 49.646 49.646h845.936c27.42 0 49.648-22.227 49.648-49.646s-22.229-49.647-49.648-49.647h-845.936c-27.419 0-49.646 22.228-49.646 49.647zM0.001 574.091c0 27.419 22.227 49.647 49.646 49.647h1082.243c27.42 0 49.648-22.228 49.648-49.647s-22.229-49.646-49.648-49.646h-1082.243c-27.419 0-49.646 22.227-49.646 49.646zM0.001 316.934c0 27.419 22.227 49.647 49.646 49.647h1082.243c27.42 0 49.648-22.228 49.648-49.647s-22.229-49.646-49.648-49.646h-1082.243c-27.419 0-49.646 22.227-49.646 49.646zM0.001 49.341c0 27.42 22.227 49.648 49.646 49.648h1082.243c27.42 0 49.648-22.229 49.648-49.648s-22.229-49.64-49.648-49.64h-1082.243c-27.419 0-49.646 22.221-49.646 49.64z" />
<glyph unicode="&#xe917;" glyph-name="location" horiz-adv-x="1161" d="M308.906 640.857c-81.755 0-148.268-63.754-148.268-142.124s66.514-142.124 148.268-142.124c81.755 0 148.269 63.755 148.269 142.124s-66.512 142.124-148.269 142.124zM308.906 427.67c-40.879 0-74.139 31.879-74.139 71.067 0 39.186 33.257 71.066 74.139 71.066 40.88 0 74.14-31.878 74.14-71.066s-33.257-71.067-74.14-71.067zM731.054 549.379c0 19.624-16.596 35.532-37.069 35.532h-21.917c-20.472 0-37.068-15.908-37.068-35.532s16.596-35.532 37.068-35.532h21.917c20.473 0 37.069 15.908 37.069 35.532zM731.054 407.25c0 19.624-16.596 35.532-37.069 35.532h-21.917c-20.472 0-37.068-15.908-37.068-35.532s16.596-35.532 37.068-35.532h21.917c20.473 0 37.069 15.908 37.069 35.532zM731.054 688.248c0 19.624-16.596 35.532-37.069 35.532h-21.917c-20.472 0-37.068-15.908-37.068-35.532s16.596-35.532 37.068-35.532h21.917c20.473 0 37.069 15.908 37.069 35.532zM1033.284 888.818v10.722c0 33.391-28.242 60.46-63.078 60.46h-417.503c-34.835 0-63.074-27.069-63.074-60.46v-11.083h-8.894c-34.835 0-63.074-27.069-63.074-60.46v-52.121c-33.846 12.243-70.491 18.962-108.752 18.962-170.333 0-308.909-132.833-308.909-296.106 0-66.879 46.061-176.532 140.816-335.219 67.888-113.684 136.748-210.985 137.435-211.961 14.709-20.733 46.597-20.733 61.306 0 0.552 0.785 45.302 64.020 98.154 147.968h601.984c34.836 0 63.072 27.068 63.072 60.457v668.104c0 33.311-28.105 60.347-62.86 60.46l-6.622 0.277zM308.906 35.84c-85.845 126.805-234.777 366.774-234.777 462.894 0 124.092 105.319 225.047 234.777 225.047 129.46 0 234.779-100.954 234.779-225.047 0-96.119-148.929-336.088-234.779-462.894zM1028.642 170.578h-227.635v111.337c0 19.622-16.596 35.529-37.069 35.529-20.466 0-37.062-15.907-37.062-35.529v-111.337h-245.688c91.901 154.862 136.63 262.276 136.63 328.156 0 97.719-49.651 184.519-126.028 238.48v80.183h71.968v71.543h395.396v-70.939l69.489-0.484v-646.939zM886.279 549.379c0 19.624-16.596 35.532-37.069 35.532h-21.92c-20.473 0-37.069-15.908-37.069-35.532s16.596-35.532 37.069-35.532h21.92c20.473 0 37.069 15.908 37.069 35.532zM886.279 407.25c0 19.624-16.596 35.532-37.069 35.532h-21.92c-20.473 0-37.069-15.908-37.069-35.532s16.596-35.532 37.069-35.532h21.92c20.473 0 37.069 15.908 37.069 35.532zM886.279 688.248c0 19.624-16.596 35.532-37.069 35.532h-21.92c-20.473 0-37.069-15.908-37.069-35.532s16.596-35.532 37.069-35.532h21.92c20.473 0 37.069 15.908 37.069 35.532z" />
<glyph unicode="&#xe918;" glyph-name="location-2" horiz-adv-x="819" d="M383.792 768.296c-105.819 0-191.896-86.097-191.896-191.896s86.076-191.896 191.896-191.896c105.82 0 191.896 86.076 191.896 191.896 0 105.798-86.076 191.896-191.896 191.896zM383.792 469.791c-58.784 0-106.609 47.825-106.609 106.609s47.825 106.609 106.609 106.609c58.784 0 106.609-47.825 106.609-106.609s-47.825-106.609-106.609-106.609zM383.792 960c-211.618 0-383.792-172.173-383.792-383.792 0-198.783 315.797-562.999 351.788-603.877l32.003-36.332 32.004 36.332c35.992 40.878 351.788 405.094 351.788 603.877 0 211.618-172.173 383.792-383.792 383.792zM383.792 66.082c-105.756 126.444-298.505 383.176-298.505 510.126 0 164.604 133.901 298.505 298.505 298.505s298.506-133.901 298.506-298.505c0-126.95-192.749-383.683-298.506-510.126z" />
<glyph unicode="&#xe919;" glyph-name="location-3" horiz-adv-x="960" d="M487.805 780.277c-99.206 0-179.902-80.716-179.902-179.902s80.696-179.903 179.902-179.903c99.206 0 179.901 80.696 179.901 179.903 0 99.186-80.694 179.902-179.901 179.902zM487.805 500.429c-55.11 0-99.946 44.836-99.946 99.946s44.836 99.946 99.946 99.946c55.11 0 99.946-44.836 99.946-99.946s-44.836-99.946-99.946-99.946zM487.805 960c-198.392 0-359.805-161.412-359.805-359.805 0-186.359 296.060-527.811 329.802-566.134l30.003-34.061 30.004 34.061c33.742 38.323 329.801 379.775 329.801 566.134 0 198.392-161.414 359.805-359.805 359.805zM487.805 121.952c-99.146 118.541-279.848 359.228-279.848 478.243 0 154.316 125.532 279.848 279.848 279.848 154.314 0 279.85-125.532 279.85-279.848 0-119.016-180.703-359.702-279.85-478.243zM0 23.994c0 22.093 17.912 40.006 40.008 40.006h879.986c22.093 0 40.006-17.914 40.006-40.006 0-22.099-17.914-40.013-40.006-40.013h-879.986c-22.096 0-40.008 17.914-40.008 40.013z" />
<glyph unicode="&#xe91a;" glyph-name="login" d="M263 15.924h-141.614c-17.076 0-27.378 9.528-31.998 15.212-7.976 9.815-11.066 22.579-8.472 35.041 41.538 199.521 217.618 345.231 420.89 349.957 3.386-0.123 6.78-0.21 10.194-0.21 3.446 0 6.866 0.087 10.281 0.215 49.71-1.137 98.258-10.481 144.476-27.832 20.68-7.772 43.74 2.703 51.507 23.383s-2.703 43.743-23.388 51.509c-6.62 2.488-13.286 4.816-19.988 7.024 66.202 49.66 109.112 128.764 109.112 217.702 0 149.98-122.020 272-272.001 272s-272-122.020-272-272c0-89.018 42.984-168.184 109.286-217.836-60.742-19.996-117.742-51.092-167.626-92.124-91.464-75.233-155.058-180.173-179.064-295.485-7.524-36.132 1.488-73.247 24.726-101.816 23.12-28.431 57.406-44.739 94.064-44.739h141.614c22.092 0 40 17.91 40 40.003 0 22.088-17.908 39.997-40 39.997zM319.999 687.925c0 105.87 86.13 192 192 192 105.872 0 192.001-86.13 192.001-192 0-102.734-81.111-186.876-182.651-191.77-3.118 0.056-6.231 0.104-9.35 0.104-3.128 0-6.254-0.046-9.378-0.102-101.53 4.908-182.622 89.044-182.622 191.768zM413.536 152.541c0 21.75 17.633 39.383 39.385 39.383h492.308c21.75 0 39.383-17.633 39.383-39.383 0-21.755-17.633-39.383-39.383-39.383h-492.308c-21.751 0-39.385 17.628-39.385 39.383zM766.305 341.306c15.38 15.38 40.32 15.38 55.7 0l153.17-153.17c15.38-15.38 15.38-40.315 0-55.695s-40.32-15.38-55.7 0l-153.17 153.17c-15.38 15.38-15.38 40.315 0 55.695zM766.305-25.102c15.38-15.38 40.32-15.38 55.7 0l153.17 153.17c15.38 15.38 15.38 40.32 0 55.7s-40.32 15.38-55.7 0l-153.17-153.17c-15.38-15.38-15.38-40.32 0-55.7z" />
<glyph unicode="&#xe91b;" glyph-name="logo" horiz-adv-x="907" d="M34.743-64.035l427.883 0.001c16.159 0 29.257 13.098 29.257 29.257v124.343l380.344-0.001c16.157 0 29.257 13.098 29.257 29.257v811.885c0 16.158-13.1 29.257-29.257 29.257h-837.484c-16.158 0-29.257-13.099-29.257-29.257v-965.485c0-16.159 13.099-29.257 29.257-29.257zM159.083 118.82c0-16.157 13.1-29.257 29.257-29.257h252.343v-102.399h-383.997v921.6h793.599v-768.001h-358.401v76.801h226.743c16.159 0 29.257 13.098 29.257 29.257l0.001 530.284c0 16.159-13.1 29.257-29.257 29.257h-530.287c-16.157 0-29.257-13.098-29.257-29.257v-658.286zM619.884 649.106c0 16.159-13.098 29.257-29.257 29.257h-274.286c-16.157 0-29.257-13.098-29.257-29.257v-402.286c0-16.157 13.1-29.257 29.257-29.257l124.341 0.001v-76.801h-230.4v614.4h486.4v-486.399h-204.8v102.399h98.743c16.157 0 29.257 13.098 29.257 29.257l0.001 248.686zM568.683 627.163v-204.8h-98.743c-16.159 0-29.257-13.098-29.257-29.257v-124.341h-102.399v358.399h230.399z" />
<glyph unicode="&#xe91c;" glyph-name="man" d="M870.373 248.149c-62.56 85.016-150.262 145.509-251.606 174.808 85.049 75.944 73.082 151.272 73.307 255.467l3.639 20.923c16.561 85.638-45.527 172.934-130.296 190.857-61.415 101.235-219.006 90.092-264.583-18.813-94.27-35.612-111.096-159.229-28.946-217.037v-72.062c0-63.649 28.456-120.773 73.309-159.334-214.084-59.901-356.973-265.999-344.431-486.958h962.43c4.588 111.985-25.327 221.983-92.822 312.149zM722.091 146.097c0-16.555-13.462-30.017-30.017-30.017-39.816 1.652-39.804 58.382 0 60.027 16.555 0 30.017-13.462 30.017-30.010zM481.819 304.356l-61.812 77.173c38.341-12.205 83.948-12.382 122.415-0.456l-60.603-76.717zM330.992 817.995l17.134 4.054 4.82 16.934c10.299 36.18 45.26 61.449 85.014 61.449 34.916 0 66.566-19.513 80.635-49.712l6.839-14.683 16.029-2.341c54.817-6.903 99.761-56.216 96.515-111.258l-125.88 46.949-13.516-12.119c-17.552-15.801-41.309-24.015-65.414-22.742l-17.106 0.859-9.44-14.29c-35.925-53.869-124.566-32.397-127.715 32.472-0.767 30.495 20.651 56.99 52.085 64.429zM331.914 582.291v49c42.703-5.427 86.951 11.528 114.571 43.319 27.985 1.545 54.719 10.673 77.393 26.32l108.171-40.344v-78.295c-8.248-199.102-291.931-199.012-300.135 0zM141.888 212.507c29.543 40.038 65.333 73.875 105.987 100.562v-125.056c-34.933-12.254-60.027-45.247-60.027-83.934v-48.026h60.027v48.026c0 15.995 13.464 29.013 30.014 29.013s30.013-13.018 30.013-29.013v-48.026h60.027v48.026c0 38.694-25.093 71.68-60.027 83.934v157.673c15.917 7.031 32.488 13.091 49.35 18.174l94.715-118.251v-249.583h-390.114c5.571 78.363 32.955 152.672 80.034 216.48zM511.995-3.973v249.692l93.6 118.482c19.357-5.799 38.356-12.872 56.467-21.228v-112c-93.996-34.789-71.47-173.001 30.018-174.92 101.499 1.925 123.993 140.151 30.010 174.92v78.087c103.014-69.499 172.196-188.986 180.019-313.033h-390.115z" />
<glyph unicode="&#xe91d;" glyph-name="menu-2" horiz-adv-x="1297" d="M85.333 106.667h1126.4c47.128 0 85.333-38.205 85.333-85.333s-38.205-85.333-85.333-85.333h-1126.4c-47.128 0-85.333 38.205-85.333 85.333s38.205 85.333 85.333 85.333zM85.333 533.333h1126.4c47.128 0 85.333-38.205 85.333-85.333s-38.205-85.333-85.333-85.333h-1126.4c-47.128 0-85.333 38.205-85.333 85.333s38.205 85.333 85.333 85.333zM85.333 960h1126.4c47.128 0 85.333-38.205 85.333-85.333s-38.205-85.333-85.333-85.333h-1126.4c-47.128 0-85.333 38.205-85.333 85.333s38.205 85.333 85.333 85.333z" />
<glyph unicode="&#xe91e;" glyph-name="microscope" horiz-adv-x="910" d="M848.725 370.558h-424.148c-15.686 0-28.402-12.681-28.402-28.331s12.716-28.331 28.402-28.331h100.792c-35.746-31.363-81.94-49.112-131.088-49.112-109.628 0-198.819 88.969-198.819 198.332 0 99.743 74.196 182.51 170.416 196.301v-52.745c0-28.122 22.934-51 51.124-51h9.468v-69.889c0-28.122 22.934-51 51.124-51h75.741c28.188 0 51.125 22.878 51.125 51v69.889h9.466c28.188 0 51.126 22.878 51.126 51v273.889c0 28.122-22.938 51-51.126 51h-196.925c-28.19 0-51.124-22.878-51.124-51v-42.617c-194.557-14.535-348.406-177.093-348.406-374.827 0-158.373 98.701-294.178 237.961-349.44l-20.338-92.558h-83.184c-15.686 0-28.403-12.686-28.403-28.336 0-15.644 12.717-28.331 28.403-28.331h484.738c15.69 0 28.405 12.686 28.405 28.331 0 15.65-12.715 28.336-28.405 28.336h-83.182l-20.312 92.444c89.442 35.408 166.112 105.762 207.060 200.334h108.51c15.684 0 28.399 12.681 28.399 28.331s-12.715 28.331-28.399 28.331zM547.656 491.45h-64.379v64.222h64.379v-64.222zM422.684 874.894h185.566v-262.555h-185.566v262.555zM495.311 21.118h-202.060l16.616 75.628c55.787-12.789 113.908-12.578 168.841-0.057l16.604-75.571zM394.281 143.896c-176.451 0-320.003 143.201-320.003 319.221 0 166.47 128.407 303.564 291.601 317.951v-64.534c-127.634-14.14-227.222-122.387-227.222-253.417 0-140.607 114.673-254.999 255.624-254.999 82.895 0 159.25 39.253 207.302 105.779h75.639c-54.864-103.14-163.862-170.001-282.941-170.001z" />
<glyph unicode="&#xe91f;" glyph-name="moon" d="M811.998 657.999c16.568 0 30.003 13.432 30.003 30 0 49.626 40.373 90 90.003 90 16.568 0 29.996 13.432 29.996 30s-13.428 30-29.996 30c-48.79 0-90.003 42.13-90.003 92 0 16.568-13.435 30-30.003 30s-29.996-13.432-29.996-30c0-49.87-41.213-92-90.003-92-16.566 0-29.998-13.431-29.998-30s13.431-30 29.998-30c49.63 0 90.003-40.374 90.003-90 0-16.568 13.428-30 29.996-30zM781.496 808.299c11.564 8.819 21.729 19.136 30.502 30.958 8.779-11.82 18.937-22.138 30.508-30.958-11.564-8.624-21.845-18.874-30.508-30.407-8.656 11.534-18.944 21.783-30.502 30.407zM602.001 747.999c0 16.568-13.432 30-30 30s-30-13.432-30-30c0-82.71-67.29-150-150-150-16.568 0-30-13.432-30-30s13.432-30 30-30c82.711 0 150-67.29 150-150 0-16.568 13.432-30 30-30s30 13.432 30 30c0 82.71 67.29 150 149.998 150 16.568 0 30.003 13.432 30.003 30s-13.435 30-30.003 30c-82.708 0-149.998 67.29-149.998 150zM572 496.054c-17.742 29.444-42.499 54.202-71.941 71.944 29.444 17.742 54.2 42.5 71.941 71.944 17.743-29.444 42.501-54.202 71.942-71.944-29.441-17.742-54.2-42.498-71.942-71.944zM511.999-64c257.277 0 477.663 193.044 511.721 442.595 1.898 13.86-6.042 27.187-19.128 32.126s-27.846 0.18-35.587-11.474c-66.034-99.46-183.671-161.249-307.005-161.249-198.504 0-360 161.497-360 360.002 0 123.335 61.786 240.974 161.248 307.005 11.652 7.736 16.414 22.5 11.474 35.586-4.938 13.086-18.262 21.022-32.126 19.132-249.878-34.11-442.595-254.794-442.595-511.724 0-281.92 230.1-511.999 511.999-511.999zM336.452 868.693c-59.844-75.316-94.452-171.474-94.452-270.694 0-231.588 188.412-420.001 420-420.001 99.222 0 195.375 34.611 270.694 94.454-69.864-163.492-234.182-276.453-420.694-276.453-249.233 0-451.999 202.766-451.999 452 0 186.512 112.958 350.83 276.452 420.694z" />
<glyph unicode="&#xe920;" glyph-name="moon-2" horiz-adv-x="890" d="M320.004 910.18c10.427 2.127 20.938 3.905 31.516 5.326 4.053 0.52 8.115 0.978 12.184 1.374 2.332 0.291 4.666 0.56 7.002 0.806 14.598 1.358 29.301 2.040 44.064 2.031 261.128 0.086 472.886-211.569 472.971-472.746 0.013-28.601-2.573-57.144-7.72-85.277-46.913-256.931-293.18-427.177-550.063-380.256-103.556 18.913-197.838 71.849-267.91 150.421-2.576 2.858-11.16 12.858-15.131 17.497-14.774 18.267-27.966 37.296-39.592 56.925-2.339 3.949 0.725 8.842 5.305 8.557l71.166-4.474c11.823 0.183 23.549 0.899 35.153 2.133 142.201 15.12 265.82 107.716 319.46 242.354 47.345 124.89 25.195 264.922-57.015 368.835-4.46 5.637-9.096 11.167-13.907 16.584l-50.9 59.672c-3.102 3.636-1.26 9.254 3.417 10.238zM205.784 131.86c173.647-116.153 408.563-69.521 524.693 104.159 116.139 173.679 69.512 408.636-104.136 524.791-39.010 26.095-82.539 44.702-128.356 54.869 125.387-229.097 41.343-516.483-187.712-641.892-33.035-18.089-68.115-32.163-104.489-41.926z" />
<glyph unicode="&#xe921;" glyph-name="ok" horiz-adv-x="1365" d="M32.037 480.546c42.828 42.827 112.265 42.827 155.092 0l327.627-327.627c42.827-42.827 42.827-112.265 0-155.092-42.829-42.827-112.265-42.827-155.093 0l-327.626 327.627c-42.827 42.827-42.827 112.265 0 155.092zM359.371-2.21c-42.829 42.827-42.829 112.265 0 155.092l689.664 689.665c42.827 42.828 112.265 42.828 155.092 0 42.829-42.827 42.829-112.265 0-155.092l-689.664-689.664c-42.827-42.829-112.265-42.829-155.092 0z" />
<glyph unicode="&#xe922;" glyph-name="phone" horiz-adv-x="751" d="M676.248 164.844l-21.356 35.656c-38.408 63.324-91.413 136.006-160.94 136.006-12.881 0-25.638-2.591-38.264-7.838l-37.317-16.003c-3.409-1.413-6.72-3.021-10.226-4.725-9.551-4.646-20.381-9.907-31.521-9.907-27.48 0-59.32 35.761-89.64 100.692-29.757 63.731-27.858 97.141-21.027 113.952 7.537 18.548 25.064 26.478 43.894 33.604 2.619 0.993 4.983 1.893 7.283 2.84l37.789 15.911c98.447 41.169 61.823 185.040 49.815 232.208l-10.184 40.555c-8.706 33.424-31.789 122.205-108.354 122.205-14.174 0-29.295-3.302-44.928-9.819-10.258-4.074-151.417-61.694-202.557-162.922-61.121-120.491-49.82-282.069 33.558-480.141 82.754-198.321 190.065-319.625 318.952-360.537 22.109-7.025 47.095-10.581 74.27-10.581h0.014c88.947 0 176.749 37.847 183.876 40.987 30.667 12.991 50.487 32.734 58.911 58.682 14.281 44.012-9.673 92.228-32.046 129.174zM642.395 57.057c-1.959-6.035-8.766-11.537-20.22-16.364-0.189-0.082-0.42-0.177-0.614-0.266-0.795-0.348-80.269-35.157-156.073-35.157-20.053 0-37.987 2.471-53.302 7.339-108.585 34.468-201.435 142.527-276.028 321.283-75.147 178.536-87.155 320.527-35.641 422.078 40.001 79.175 165.231 129.401 166.459 129.881 0.249 0.102 0.494 0.199 0.739 0.3 7.131 2.993 13.523 4.573 18.483 4.573 15.264 0 29.157-23.674 41.229-70.076l10.138-40.384c21.873-85.904 18.543-139.635-9.458-151.348l-37.608-15.841c-1.496-0.618-3.247-1.27-5.177-2.004-20.774-7.865-64.003-24.224-83.553-72.311-17.74-43.635-10.396-99.030 22.427-169.35 44.208-94.648 94.065-140.653 152.419-140.653 27.083 0 48.822 10.561 61.809 16.876 2.393 1.161 4.531 2.225 6.831 3.181l37.373 16.022c3.856 1.611 7.561 2.389 11.32 2.389 17.989 0 50.244-17.811 101.612-102.489l21.342-35.635c26.302-43.431 28.381-63.147 25.494-72.042z" />
<glyph unicode="&#xe923;" glyph-name="phone-2" d="M783.124 284.662c-33.654 33.224-75.668 33.224-109.107 0-25.508-25.293-51.016-50.586-76.093-76.308-6.861-7.076-12.646-8.576-21.007-3.86-16.502 9.006-34.079 16.292-49.94 26.153-73.952 46.515-135.899 106.317-190.772 173.624-27.223 33.439-51.444 69.234-68.378 109.531-3.43 8.145-2.787 13.504 3.858 20.149 25.508 24.65 50.373 49.944 75.451 75.237 34.939 35.153 34.939 76.308-0.215 111.676-19.934 20.149-39.869 39.869-59.804 60.018-20.577 20.578-40.941 41.37-61.732 61.733-33.653 32.795-75.665 32.795-109.104-0.215-25.722-25.293-50.372-51.23-76.523-76.094-24.221-22.936-36.439-51.015-39.012-83.811-4.073-53.373 9.003-103.745 27.437-152.831 37.725-101.6 95.171-191.84 164.835-274.579 94.099-111.892 206.419-200.417 337.814-264.294 59.162-28.723 120.468-50.801 187.131-54.446 45.87-2.57 85.74 9.001 117.678 44.8 21.862 24.438 46.51 46.73 69.663 70.093 34.294 34.724 34.509 76.739 0.425 111.032-40.724 40.94-81.664 81.669-122.604 122.394zM732.575 494.389c6.861-21.061 27.295-35.871 49.126-32.143 21.857 3.731 36.772 24.573 30.592 45.865-16.579 57.156-47.263 108.919-89.83 151.663-45.501 45.502-100.951 77.111-162.109 92.773-21.489 5.502-41.876-10.043-44.954-32.008-3.077-21.962 12.36-41.968 33.649-48.179 43.899-12.809 83.773-36.337 116.823-69.389 30.771-30.772 53.422-67.793 66.703-108.582zM865.864 799.315c-81.782 81.78-182.989 136.566-294.845 159.895-21.704 4.526-42.035-10.922-45.112-32.878-3.082-21.967 12.283-42.11 33.946-46.884 94.52-20.832 180.086-67.788 249.421-136.935 65.29-65.291 110.991-145.604 133.386-234.098 5.432-21.459 25.984-36.178 47.805-32.453 21.852 3.731 36.664 24.538 31.432 46.082-25.487 104.913-78.961 200.007-156.032 277.272z" />
<glyph unicode="&#xe924;" glyph-name="pill" d="M480.799 320.627h-104.912v104.907c0 17.338-14.057 31.394-31.396 31.394s-31.396-14.056-31.396-31.394v-104.907h-104.912c-17.339 0-31.396-14.057-31.396-31.391 0-17.34 14.057-31.397 31.396-31.397h104.912v-104.903c0-17.34 14.057-31.397 31.396-31.397s31.396 14.057 31.396 31.397v104.903h104.912c17.339 0 31.396 14.057 31.396 31.397 0 17.334-14.057 31.391-31.396 31.391zM936.846 404.614c54.027-54.018 54.027-141.917 0.006-195.939l-203.657-203.645c-39.265-39.259-97.331-50.671-147.871-31.243-12.698-6.087-26.379-9.335-39.861-9.335h-400.203c-50.048 0-99.17 45.631-99.17 92.132v466.288c0 48.109 50.192 88.469 99.17 88.469h32.693v71.161h-16.512c-33.575 0-63.025 28.866-63.025 61.773v121.521c0 31.045 26.953 65.767 63.025 65.767h365.746c36.072 0 63.023-34.722 63.023-65.767v-121.521c0-32.907-29.447-61.773-63.023-61.773h-20.698v-71.161h38.973c50.602 0 94.986-41.34 94.986-88.469v-197.049c99.402 99.397 89.782 89.861 93.525 93.327 54.744 50.706 139.742 48.598 192.046-3.709l10.826-10.825zM881.618 371.031c-29.69 29.691-77.915 29.389-107.145 0.011l-77.312-77.306 117.976-117.97c86.13 86.13 77.921 77.841 80.236 80.412 26.687 29.844 25.481 75.622-2.935 104.033l-10.82 10.82zM302.495 868.772v-123.484h74.449v123.484h-74.449zM527.42 745.899v119.248c-0.362 1.093-1.498 2.704-2.503 3.625h-79.443v-123.484c87.070 0 80.977-0.339 81.946 0.611zM161.209 865.148v-119.248c0.967-0.948-4.385-0.611 76.898-0.611v123.484h-74.394c-1.005-0.921-2.141-2.534-2.504-3.625zM453.295 682.5h-219.353v-71.161h219.353v71.161zM108.882 522.87v-466.288c0-10.2 19.271-29.343 36.378-29.343h370.985c-43.584 54.346-40.208 134.178 10.172 184.553l51.238 51.234v259.843c0 10.976-15.917 25.681-32.192 25.681h-400.203c-18.042 0-36.378-16.476-36.378-25.681zM581.643 49.426c29.571-29.565 77.511-29.633 107.15 0l81.948 81.943-117.982 117.965-81.943-81.937c-29.612-29.611-29.606-77.54 0-107.145l10.826-10.826z" />
<glyph unicode="&#xe925;" glyph-name="question" d="M512 152.925c27.612 0 50.002 22.385 50.002 50.002 0 27.612-22.39 49.997-50.002 49.997-27.614 0-50-22.385-50-49.997 0-27.617 22.386-50.002 50-50.002zM512 959.925c-282.968 0-512-228.994-512-512.001 0-282.967 228.994-512 512-512 282.967 0 512 228.997 512 512 0 282.969-228.992 512.001-512 512.001zM512 15.924c-238.754 0-432 193.213-432 432 0 238.755 193.214 432.001 432 432.001 238.756 0 432-193.214 432-432.001 0-238.756-193.213-432-432-432zM512 702.925c-88.224 0-160-71.776-160-160 0-22.092 17.908-40 40-40s40 17.908 40 40c0 44.112 35.888 80 80 80 44.114 0 80-35.888 80-80s-35.886-80-80-80c-22.092 0-40-17.909-40-40.002v-99.999c0-22.093 17.908-39.997 40-39.997s39.997 17.905 39.997 39.997v65.060c68.936 17.807 120.003 80.522 120.003 154.94 0 88.224-71.777 160-160 160z" />
<glyph unicode="&#xe926;" glyph-name="radiology" horiz-adv-x="1138" d="M1060.107 480.382h-178.87c20.81 243.581-172.851 451.179-416.13 451.179-231.452 0-419.753-186.469-419.753-415.67 0-165.796 99.037-309.895 241.899-376.313l-51.873-104.892c-2.13-4.306-3.236-9.040-3.236-13.841 0-31.095 25.42-56.394 56.667-56.394h352.594c31.243 0 56.667 25.298 56.667 56.394 0 4.801-1.109 9.535-3.237 13.841l-51.951 105.045c55.967 26.328 104.926 64.569 143.616 110.882h134.042v-221.412h-18.893c-17.385 0-31.482-14.029-31.482-31.334 0-17.3 14.097-31.329 31.482-31.329h100.745c17.385 0 31.477 14.029 31.477 31.329 0 17.306-14.091 31.334-31.477 31.334h-18.893v221.412h76.607c32.973 0 59.813 26.55 59.813 59.176v111.417c0 32.627-26.84 59.175-59.813 59.175zM628.406 27.114h-326.595l44.578 90.14c77.913-22.915 161.33-22.528 237.445-0.011l44.572-90.129zM590.575 185.516c-1.075-0.33-2.139-0.734-3.197-1.189-77.991-28.405-165.549-28.922-245.441 0.387-0.497 0.199-0.995 0.381-1.496 0.552-138.873 51.621-232.124 184.377-232.124 330.626 0 194.648 160.056 353.006 356.79 353.006 208.622 0 373.936-179.651 352.893-388.515h-88.758c21.515 159.636-103.532 300.786-264.135 300.786-146.972 0-266.543-119.003-266.543-265.277 0-145.367 118.278-265.277 266.543-265.277h234.023c-32.159-28.251-68.887-50.21-108.555-65.098zM264.662 480.382c-22.108 124.262 74.128 238.123 200.445 238.123 126.247 0 222.566-113.783 200.447-238.123h-400.892zM1056.961 313.277c-38.184 0-565.217 0-591.854 0-74.523 0-142.632 41.341-178.017 104.441h769.872v-104.441z" />
<glyph unicode="&#xe927;" glyph-name="reception" horiz-adv-x="1161" d="M892.88 719.531c66.294 0 120.231 53.937 120.231 120.235s-53.937 120.235-120.231 120.235c-66.301 0-120.238-53.937-120.238-120.235s53.937-120.235 120.238-120.235zM892.88 879.843c22.098 0 40.079-17.979 40.079-40.078s-17.981-40.079-40.079-40.079c-22.098 0-40.079 17.979-40.079 40.079s17.981 40.078 40.079 40.078zM349.818 719.531c66.298 0 120.235 53.937 120.235 120.235s-53.937 120.235-120.235 120.235c-66.297 0-120.235-53.937-120.235-120.235s53.937-120.235 120.235-120.235zM349.818 879.843c22.099 0 40.079-17.979 40.079-40.078s-17.979-40.079-40.079-40.079c-22.099 0-40.078 17.979-40.078 40.079s17.979 40.078 40.078 40.078zM973.039 681.456c66.294 0 120.231-53.937 120.231-120.235v-284.557c0-27.668-22.432-50.094-50.094-50.094h-30.065v-250.491c0-22.139-17.94-40.079-40.073-40.079-22.139 0-40.079 17.94-40.079 40.079v280.549c0 27.666 22.426 50.096 50.094 50.096h30.058v254.497c0 22.099-17.975 40.079-40.073 40.079h-160.317c-22.098 0-40.079-17.979-40.079-40.079v-254.497h30.058c27.668 0 50.101-22.43 50.101-50.096v-270.527c0-27.668-22.432-50.101-50.101-50.101h-685.335c-27.668 0-50.098 22.432-50.098 50.101v350.682c0 27.668 22.43 50.098 50.098 50.098h32.062v174.34c0 66.298 53.937 120.235 120.235 120.235h160.313c66.298 0 120.235-53.937 120.235-120.235v-174.34h142.28v174.34c0 66.298 53.937 120.235 120.231 120.235h160.317zM692.49 276.664v30.060h-545.067v-290.565h625.219v210.412h-30.058c-27.668 0-50.094 22.426-50.094 50.094zM229.584 386.881h240.47v174.34c0 22.099-17.979 40.079-40.079 40.079h-160.313c-22.099 0-40.079-17.979-40.079-40.079v-174.34z" />
<glyph unicode="&#xe928;" glyph-name="review" horiz-adv-x="1229" d="M1091.42 552.040h-186.15v309.178c0 54.468-44.312 98.781-98.782 98.781h-644.908c-54.468 0-98.781-44.313-98.781-98.781v-497.71c0-54.467 44.313-98.784 98.781-98.784h72.621l52.707-210.794c3.308-13.278 13.813-23.538 27.156-26.563 2.663-0.601 5.335-0.894 7.998-0.894 10.68 0.007 20.982 4.738 27.948 13.189l185.684 225.062h-5.186v-97.615c0-42.319 34.426-76.752 76.758-76.752h244.263l116.47-141.182c6.977-8.451 17.278-13.175 27.962-13.175 2.649 0 5.332 0.294 7.987 0.894 13.339 3.011 23.846 13.285 27.163 26.556l31.724 126.908h28.583c42.325 0 76.759 34.434 76.759 76.752v308.172c0 42.332-34.434 76.758-76.759 76.758zM518.612 337.201c-10.818 0-21.065-4.829-27.948-13.178l-144.901-175.632c-2.469-2.99-7.292-1.898-8.232 1.864l-39.876 159.496c-4.027 16.135-18.521 27.451-35.154 27.451h-100.919c-14.504 0-26.298 11.804-26.298 26.307v497.71c0 14.504 11.794 26.308 26.298 26.308h644.908c14.507 0 26.296-11.804 26.296-26.308v-497.71c0-14.503-11.79-26.307-26.296-26.307h-287.877zM1095.7 167.11c0-2.355-1.918-4.273-4.28-4.273h-56.866c-16.637 0-31.13-11.325-35.157-27.45l-18.91-75.605c-0.942-3.761-5.769-4.854-8.233-1.864l-75.68 91.744c-6.888 8.335-17.142 13.175-27.948 13.175h-261.357c-2.359 0-4.285 1.918-4.285 4.273v97.615h203.506c54.47 0 98.768 44.317 98.768 98.784v116.059h186.163c2.362 0 4.28-1.917 4.28-4.285v-308.172zM599.927 401.952c-5.769 0-11.555 1.373-16.863 4.165l-99.030 52.063-99.039-52.063c-12.209-6.423-26.999-5.353-38.167 2.765-11.159 8.099-16.743 21.847-14.412 35.439l18.917 110.281-80.13 78.094c-9.869 9.629-13.426 24.032-9.169 37.153 4.267 13.112 15.61 22.677 29.256 24.658l110.723 16.089 49.52 100.338c6.109 12.366 18.706 20.198 32.5 20.198s26.391-7.832 32.491-20.198l49.519-100.338 110.724-16.089c13.653-1.981 24.999-11.546 29.259-24.658 4.267-13.122 0.71-27.524-9.168-37.153l-80.125-78.094 18.909-110.281c2.331-13.592-3.253-27.34-14.412-35.439-6.312-4.598-13.785-6.93-21.304-6.93zM374.381 633.341l41.18-40.148c8.542-8.321 12.44-20.318 10.422-32.076l-9.722-56.679 50.911 26.759c10.551 5.556 23.166 5.556 33.726 0l50.901-26.759-9.721 56.679c-2.018 11.758 1.88 23.755 10.422 32.076l41.181 40.148-56.91 8.275c-11.804 1.713-22.013 9.122-27.284 19.821l-25.451 51.574-25.45-51.574c-5.289-10.698-15.49-18.107-27.294-19.821l-56.91-8.275z" />
<glyph unicode="&#xe929;" glyph-name="search" d="M973.599 27.296l-243.717 253.476c62.664 74.491 96.998 168.217 96.998 265.788 0 227.967-185.472 413.44-413.441 413.44-227.967 0-413.439-185.473-413.439-413.44s185.473-413.439 413.439-413.439c85.582 0 167.138 25.815 236.867 74.813l245.565-255.396c10.26-10.66 24.069-16.538 38.861-16.538 14.003 0 27.29 5.335 37.371 15.043 21.427 20.618 22.108 54.81 1.495 76.252zM413.439 852.146c168.505 0 305.588-137.082 305.588-305.586s-137.083-305.586-305.588-305.586c-168.503 0-305.586 137.083-305.586 305.586s137.082 305.586 305.586 305.586z" />
<glyph unicode="&#xe92a;" glyph-name="sex" horiz-adv-x="1229" d="M304.166 638.992c88.067 0 159.703 71.647 159.703 159.703s-71.647 159.693-159.703 159.693c-88.056 0-159.703-71.637-159.703-159.693 0-88.066 71.647-159.703 159.703-159.703zM304.166 880.062c44.865 0 81.366-36.502 81.366-81.366s-36.502-81.366-81.366-81.366c-44.864 0-81.366 36.502-81.366 81.366s36.502 81.366 81.366 81.366zM542.401 560.248h-476.458c-20.612 0-39.643-9.362-52.228-25.691-12.565-16.338-16.757-37.134-11.494-57.062l102.569-387.97c23.886-90.392 105.874-153.525 199.377-153.525 93.492 0 175.48 63.133 199.376 153.525l102.569 387.97c5.273 19.928 1.081 40.724-11.494 57.052-12.575 16.339-31.606 25.701-52.218 25.701zM427.817 109.554c-14.819-56.067-65.67-95.218-123.65-95.218s-108.831 39.151-123.651 95.218l-98.438 372.367h444.178l-98.438-372.367zM912.131 640.604c88.071 0 159.703 71.636 159.703 159.693 0 88.067-71.646 159.703-159.703 159.703s-159.703-71.647-159.703-159.703c0-88.056 71.646-159.693 159.703-159.693zM912.131 881.663c44.879 0 81.367-36.502 81.367-81.366s-36.502-81.366-81.367-81.366c-44.865 0-81.36 36.502-81.36 81.366s36.495 81.366 81.36 81.366zM1214.082 20.364l-102.564 387.963c-23.893 90.402-105.882 153.523-199.386 153.523-93.491 0-175.479-63.121-199.373-153.513l-102.57-387.973c-5.263-19.927-1.071-40.721 11.504-57.050 12.564-16.336 31.606-25.702 52.218-25.702h476.458c20.61 0 39.642 9.366 52.217 25.689 12.568 16.343 16.766 37.137 11.496 57.064zM690.046 15.947l98.441 372.37c14.814 56.052 65.666 95.205 123.645 95.205 57.986 0 108.838-39.153 123.651-95.205l98.441-372.37h-444.177z" />
<glyph unicode="&#xe92b;" glyph-name="shape" horiz-adv-x="5973" d="M2986.667 960.083c-1386.667 0-2133.333-804.57-2986.667-1023.998h2986.667v1023.998zM2986.667 960.083c1386.667 0 2133.333-804.571 2986.667-1023.998h-2986.667v1023.998z" />
<glyph unicode="&#xe92c;" glyph-name="share" horiz-adv-x="960" d="M624.882 736.001l-287.245-163.681c-68.349 80.922-189.182 90.968-269.891 22.44s-90.729-189.68-22.38-270.602c68.348-80.919 189.182-90.967 269.892-22.442 8.065 6.854 15.551 14.355 22.38 22.442l287.245-164.157v96l-247.030 141.597c10.118 32.999 10.118 68.284 0 101.279l247.030 141.121v96.003zM194.015 342.88c-57.905 0-104.844 47.063-104.844 105.12s46.94 105.12 104.844 105.12c57.905 0 104.844-47.063 104.844-105.12s-46.94-105.12-104.844-105.12zM768.506 928c-105.76 0-191.497-85.962-191.497-191.999s85.737-192 191.497-192c105.76 0 191.494 85.962 191.494 192s-85.734 191.999-191.494 191.999zM768.506 630.88c-57.907 0-104.845 47.064-104.845 105.121s46.938 105.12 104.845 105.12c57.901 0 104.845-47.063 104.845-105.12s-46.944-105.121-104.845-105.121zM768.506 351.999c-105.76 0-191.497-85.964-191.497-191.999 0-106.042 85.737-192 191.497-192s191.494 85.958 191.494 192c0 106.035-85.734 191.999-191.494 191.999zM768.506 54.88c-57.907 0-104.845 47.066-104.845 105.12s46.938 105.12 104.845 105.12c57.901 0 104.845-47.066 104.845-105.12s-46.944-105.12-104.845-105.12z" />
<glyph unicode="&#xe92d;" glyph-name="sort" d="M369.63 745.802c15.574-15.668 40.898-15.744 56.568-0.172 15.668 15.574 15.746 40.9 0.172 56.568l-121.912 122.654c-22.664 22.666-52.8 35.148-84.852 35.148-32.054 0-62.188-12.482-84.8-35.094l-123.036-122.568c-15.65-15.59-15.7-40.918-0.108-56.568 7.816-7.846 18.076-11.77 28.34-11.77 10.21 0 20.424 3.886 28.23 11.662l109.768 109.352v-815.114l-109.63 110.3c-15.574 15.667-40.9 15.744-56.568 0.169s-15.746-40.899-0.172-56.566l121.912-122.655c22.666-22.666 52.8-35.149 84.852-35.149 32.054 0 62.188 12.483 84.8 35.092l123.036 122.568c15.65 15.59 15.7 40.919 0.108 56.571-15.59 15.647-40.916 15.698-56.568 0.108l-111.77-111.345v819.118l111.63-112.31zM983.997 16h-400c-22.088 0-39.997-17.91-39.997-40.003 0-22.088 17.91-39.997 39.997-39.997h400c22.093 0 40.003 17.91 40.003 39.997 0 22.093-17.91 40.003-40.003 40.003zM583.997 880h400c22.093 0 40.003 17.908 40.003 40s-17.91 40-40.003 40h-400c-22.088 0-39.997-17.908-39.997-40s17.91-40 39.997-40zM983.997 724h-400c-22.088 0-39.997-17.908-39.997-39.999s17.91-40.001 39.997-40.001h400c22.093 0 40.003 17.908 40.003 40.001s-17.91 39.999-40.003 39.999zM983.997 252.001h-400c-22.088 0-39.997-17.91-39.997-40.003s17.91-39.997 39.997-39.997h400c22.093 0 40.003 17.905 40.003 39.997s-17.91 40.003-40.003 40.003zM983.997 488h-400c-22.088 0-39.997-17.908-39.997-40s17.91-39.997 39.997-39.997h400c22.093 0 40.003 17.905 40.003 39.997s-17.91 40-40.003 40z" />
<glyph unicode="&#xe92e;" glyph-name="star" d="M749.848 549.553c16.568 0 29.996 13.432 29.996 30 0 49.626 40.38 90.001 90.003 90.001 16.568 0 30.003 13.431 30.003 30s-13.435 30-30.003 30c-48.783 0-90.003 42.13-90.003 92 0 16.568-13.428 30-29.996 30s-30.003-13.431-30.003-30c0-49.87-41.212-92-89.998-92-16.568 0-30-13.432-30-30s13.432-30 30-30c49.626 0 89.998-40.374 89.998-90.001 0-16.568 13.435-30 30.003-30zM719.34 699.853c11.571 8.82 21.729 19.137 30.508 30.958 8.772-11.82 18.937-22.138 30.508-30.958-11.564-8.623-21.845-18.874-30.508-30.406-8.663 11.534-18.944 21.783-30.508 30.406zM539.847 639.553c0 16.568-13.432 30-30 30s-30-13.432-30-30c0-82.71-67.29-150-150-150-16.568 0-30-13.431-30-30s13.432-30 30-30c82.711 0 150-67.29 150-150 0-16.569 13.432-29.997 30-29.997s30 13.428 30 29.997c0 82.71 67.29 150 150.002 150 16.568 0 29.996 13.431 29.996 30s-13.428 30-29.996 30c-82.711 0-150.002 67.29-150.002 150zM509.847 387.609c-17.743 29.444-42.5 54.202-71.942 71.944 29.444 17.742 54.2 42.5 71.942 71.944 17.742-29.444 42.5-54.202 71.942-71.944-29.442-17.742-54.2-42.498-71.942-71.944zM986.842 521.725c-20.528 0-37.158-16.645-37.158-37.156v-308.707c0-54.579-34.338-104.079-85.443-123.16-14.677-5.468-30.147-8.253-45.964-8.253h-612.551c-72.452 0-131.409 58.962-131.409 131.413v544.282c0 72.452 58.957 131.409 131.409 131.409h188.237c20.526 0 37.157 16.645 37.157 37.157s-16.63 37.157-37.157 37.157h-188.237c-113.435 0.005-205.728-92.287-205.728-205.723v-544.282c0-113.439 92.292-205.728 205.728-205.728h612.544c24.726 0 48.934 4.355 71.946 12.943 80.015 29.873 133.782 107.343 133.782 192.785v308.707c0 20.511-16.63 37.156-37.158 37.156z" />
<glyph unicode="&#xe92f;" glyph-name="star-2" horiz-adv-x="1092" d="M996.25 460.149c54.961 53.774 24.542 147.289-51.603 158.336l-243.255 25.894c-0.812 0.152-2.901 1.668-3.98 3.867l-102.994 257.303c-16.804 34.229-46.959 52.867-80.266 54.45-37.411-1.58-67.595-20.237-82.983-51.461l-105.637-263.237c0.238 0.772-1.884-0.768-4.373-1.132l-239.978-25.481c-77.808-11.257-108.215-104.883-53.117-158.638l176.466-174.166c1.941-1.898 2.759-4.424 2.331-6.936l-40.148-234.16c-13.027-75.878 66.641-133.748 134.784-97.901 140.338 73.762 210.665 110.606 210.982 110.537l210.248-110.544c68.171-35.82 147.77 22.002 134.82 97.874l-40.209 234.256c-0.416 2.443 0.396 4.935 2.198 6.689l176.715 174.448zM733.204 264.629l40.209-234.271c1.051-6.151-5.42-10.848-10.977-7.926l-210.304 110.572c-11.637 6.096-24.086 9.298-37.113 10.185h-5.766c-13.101-0.881-25.586-4.096-37.167-10.199l-210.317-110.558c-5.53-2.908-11.985 1.782-10.931 7.926l40.16 234.223c5.132 30.155-4.815 60.83-26.642 82.186l-176.509 174.206c-4.661 4.547-2.192 12.149 3.975 13.043l240.025 25.489c31.896 4.631 58.010 23.6 71.56 51.013l105.657 263.281c-0.072-0.432 1.912 0.794 5.083 0.944-0.898-0.15 1.12-1.396 2.413-4.007l102.934-257.185c14.806-30.407 40.946-49.41 71.209-53.835l243.302-25.902c4.553-0.692 7.018-8.292 2.355-12.844l-176.599-174.338c-21.709-21.161-31.683-51.861-26.556-82.002z" />
<glyph unicode="&#xe930;" glyph-name="star-2-fill" d="M494.651 92.571l-185.764-97.664c-80.912-42.543-175.854 26.112-160.349 116.501l35.477 206.853c0.051 0.296-0.047 0.596-0.26 0.803l-150.287 146.495c-65.567 63.915-29.335 175.34 61.246 188.504l207.692 30.178c0.296 0.044 0.551 0.227 0.683 0.497l92.881 188.197c40.525 82.118 157.697 82.082 198.205 0l92.881-188.197c0.131-0.266 0.387-0.453 0.683-0.497l207.689-30.178c90.618-13.168 126.794-124.61 61.248-188.504l-150.283-146.492c-0.215-0.211-0.314-0.511-0.263-0.807l35.476-206.853c15.477-90.222-79.309-159.1-160.349-116.501l-185.763 97.664c-0.263 0.139-0.578 0.139-0.844 0zM732.262 91.925c0.237-0.125 0.435-0.216 0.435-0.216 0.131 0.039 0.293 0.124 0.447 0.216 0.336 0.205 0.505 0.573 0.441 0.961l-35.477 206.848c-6.152 35.857 5.729 72.422 31.783 97.822l150.287 146.491c0.223 0.215 0.342 0.517 0.273 0.819-0.006 0.023-0.011 0.047-0.018 0.071-0.086 0.347-0.353 0.6-0.707 0.655-0.017 0.003-0.034 0.005-0.053 0.007l-207.689 30.179c-36.006 5.232-67.109 27.833-83.21 60.456l-92.882 188.2c-0.12 0.241-0.222 0.428-0.222 0.428-0.129 0.046-0.31 0.073-0.488 0.088-0.392 0.032-0.745-0.167-0.919-0.519l-92.881-188.196c-16.102-32.623-47.205-55.224-83.207-60.456l-207.692-30.179c-0.305-0.043-0.578-0.215-0.699-0.499-0.012-0.027-0.023-0.055-0.034-0.082-0.13-0.326-0.062-0.678 0.185-0.925 0.015-0.015 0.031-0.031 0.047-0.047l150.291-146.494c26.051-25.396 37.932-61.965 31.779-97.818l-35.476-206.852c-0.056-0.304 0.024-0.619 0.257-0.823 0.025-0.021 0.050-0.043 0.074-0.063 0.263-0.219 0.611-0.263 0.916-0.108 0.022 0.012 0.047 0.024 0.071 0.037l185.764 97.66c32.203 16.931 70.649 16.931 102.852 0l185.753-97.66zM732.262 91.925l0.435-0.216c0.131 0.039 0.293 0.124 0.447 0.216 0.336 0.205 0.505 0.573 0.441 0.961l-35.477 206.848c-6.152 35.857 5.729 72.422 31.783 97.822l150.287 146.491c0.223 0.215 0.342 0.517 0.273 0.819-0.006 0.023-0.011 0.047-0.018 0.071-0.086 0.347-0.353 0.6-0.707 0.655-0.017 0.003-0.034 0.005-0.053 0.007l-207.689 30.179c-36.006 5.232-67.109 27.833-83.21 60.456l-93.105 188.628c-0.129 0.046-0.31 0.073-0.488 0.088-0.392 0.032-0.745-0.167-0.919-0.519l-92.881-188.196c-16.102-32.623-47.205-55.224-83.207-60.456l-207.692-30.179c-0.305-0.043-0.578-0.215-0.699-0.499-0.012-0.027-0.023-0.055-0.034-0.082-0.13-0.326-0.062-0.678 0.185-0.925 0.015-0.015 0.031-0.031 0.047-0.047l150.291-146.494c26.051-25.396 37.932-61.965 31.779-97.818l-35.476-206.852c-0.056-0.304 0.024-0.619 0.257-0.823 0.025-0.021 0.050-0.043 0.074-0.063 0.263-0.219 0.611-0.263 0.916-0.108 0.022 0.012 0.047 0.024 0.071 0.037l185.764 97.66c32.203 16.931 70.649 16.931 102.852 0l185.753-97.66z" />
<glyph unicode="&#xe931;" glyph-name="stethoscope" horiz-adv-x="973" d="M910.597 900.71h-42.353v29.29c0 16.568-13.783 30-30.787 30-16.998 0-30.781-13.432-30.781-30v-116.582c0-16.568 13.783-30 30.781-30 17.004 0 30.787 13.432 30.787 30v27.292c45.292 0 42.506 0.034 42.911-0.062v-294.584c0-98.892-89.155-180.654-200.177-180.044-109.153 0.522-197.965 81.29-197.965 180.044v294.584c0.399 0.096-2.607 0.062 42.911 0.062v-27.292c0-16.568 13.783-30 30.787-30 16.998 0 30.781 13.432 30.781 30v116.582c0 16.568-13.783 30-30.781 30-17.004 0-30.787-13.432-30.787-30v-29.29h-42.348c-34.258 0-62.13-26.308-62.13-58.646v-296c0-101.749 69.447-189.158 166.957-223.953-3.615-11.52-2.775-17.316-2.775-50.109 0-40.945 27.008-75.837 64.568-88.699-10.322-118.323-90.342-187.3-165.13-187.3-90.108 0-166.234 83.958-166.234 183.332v429.247c0 29.386-15.864 62.992-41.037 81.726-23.995 17.858-55.337 27.692-88.256 27.692-68.876 0-129.293-51.402-129.293-110v-262.937c-38.131-12.554-65.673-47.724-65.673-89.062 0-51.835 43.27-94.003 96.457-94.003s96.457 42.168 96.457 94.003c0 41.339-27.542 76.508-65.673 89.062v262.937c0 22.648 30.21 50 67.725 50 19.209 0 37.755-5.604 50.888-15.376 9.285-6.91 16.837-22.442 16.837-34.624v-428.666c0-129.070 98.85-243.333 227.802-243.333 109.21 0 215.644 95.739 226.852 246.625 38.625 12.273 66.621 47.688 66.621 89.375 0 33.183 0.794 38.707-2.76 50.053 97.562 34.739 166.943 122.045 166.943 224.010v296c0 32.338-27.873 58.646-62.126 58.646zM121.032 221.999c-19.238 0-34.889 15.252-34.889 34.002 0 18.744 15.651 33.997 34.889 33.997s34.889-15.252 34.889-33.997c0-18.749-15.651-34.002-34.889-34.002zM744.919 305.998c1.055 0 2.053-0.968 2.053-1.997v-32c0-18.749-15.647-34.002-34.888-34.002-19.236 0-34.888 15.252-34.888 34.002v32c0 1.029 0.998 1.997 2.053 1.997h65.669z" />
<glyph unicode="&#xe932;" glyph-name="sun" d="M511.956 105.24c-19.298 0-34.944-15.647-34.944-34.946v-99.348c0-19.299 15.645-34.946 34.944-34.946 19.303 0 34.944 15.647 34.944 34.946v99.348c0 19.306-15.645 34.946-34.944 34.946zM511.956 790.751c19.303 0 34.944 15.645 34.944 34.944v99.362c0 19.298-15.641 34.944-34.944 34.944-19.298 0-34.944-15.646-34.944-34.944v-99.362c0-19.298 15.645-34.944 34.944-34.944zM220.235 205.653l-70.279-70.246c-13.651-13.64-13.656-35.765-0.014-49.411 6.826-6.827 15.772-10.24 24.717-10.24 8.941 0 17.877 3.407 24.703 10.226l70.279 70.24c13.651 13.64 13.656 35.765 0.014 49.411-13.651 13.653-35.773 13.653-49.42 0.020zM779.052 680.151c8.943 0 17.879 3.411 24.706 10.231l70.274 70.242c13.647 13.647 13.647 35.768 0.007 49.42-13.647 13.651-35.765 13.656-49.418 0.005l-70.274-70.242c-13.647-13.642-13.647-35.769-0.007-49.416 6.82-6.83 15.77-10.241 24.713-10.241zM169.24 447.993c0 19.298-15.645 34.944-34.944 34.944h-99.352c-19.298 0-34.944-15.645-34.944-34.944s15.646-34.944 34.944-34.944h99.352c19.298 0 34.944 15.646 34.944 34.944zM989.082 482.937h-99.403c-19.299 0-34.939-15.645-34.939-34.944s15.64-34.944 34.939-34.944h99.403c19.299 0 34.939 15.646 34.939 34.944 0 19.294-15.64 34.944-34.939 34.944zM220.226 690.382c6.821-6.821 15.767-10.231 24.708-10.231s17.887 3.411 24.708 10.231c13.647 13.647 13.647 35.773 0 49.42l-70.242 70.242c-13.647 13.647-35.774 13.647-49.416 0-13.647-13.647-13.647-35.773 0-49.416l70.242-70.246zM803.799 205.64c-13.647 13.647-35.772 13.653-49.418 0.007s-13.647-35.772 0-49.418l70.233-70.24c6.82-6.827 15.763-10.233 24.706-10.233s17.893 3.407 24.713 10.226c13.647 13.647 13.647 35.772 0 49.418l-70.233 70.24zM511.993 719.982c-149.965 0-271.971-122.014-271.971-271.989 0-149.97 122.006-271.981 271.971-271.981 149.979 0 271.995 122.011 271.995 271.981 0 149.974-122.021 271.989-271.995 271.989zM511.993 245.903c-111.429 0-202.083 90.656-202.083 202.090 0 111.439 90.654 202.101 202.083 202.101 111.443 0 202.103-90.663 202.103-202.101 0-111.434-90.661-202.090-202.103-202.090z" />
<glyph unicode="&#xe933;" glyph-name="time" d="M916.815 198.636c-17.729 13.189-42.783 9.51-55.972-8.212-7.25-9.748-15.012-19.313-23.067-28.426-14.63-16.548-13.073-41.827 3.475-56.457 7.612-6.731 17.067-10.035 26.481-10.035 11.066 0 22.077 4.567 29.983 13.51 9.537 10.786 18.726 22.112 27.313 33.655 13.189 17.722 9.51 42.783-8.212 55.965zM983.709 386.228c-21.572 4.698-42.892-8.992-47.596-30.576-2.58-11.874-5.707-23.77-9.291-35.362-6.519-21.108 5.304-43.503 26.412-50.029 3.932-1.208 7.905-1.789 11.817-1.789 17.080 0 32.898 11.028 38.209 28.204 4.246 13.756 7.96 27.874 11.025 41.96 4.697 21.584-8.991 42.892-30.577 47.592zM724.275 70.533c-10.615-5.932-21.613-11.469-32.679-16.466-20.132-9.093-29.082-32.788-19.99-52.92 6.68-14.793 21.239-23.545 36.476-23.545 5.502 0 11.1 1.14 16.439 3.557 13.128 5.926 26.167 12.493 38.755 19.524 19.292 10.772 26.201 35.137 15.428 54.422-10.766 19.292-35.137 26.194-54.429 15.428zM472 768v-303.432l-146.678-146.676c-15.62-15.622-15.62-40.948 0-56.567 7.812-7.81 18.046-11.715 28.286-11.715 10.237 0 20.475 3.905 28.286 11.715l158.392 158.391c7.5 7.5 11.714 17.676 11.714 28.284v320c0 22.092-17.908 40-40 40s-40-17.908-40-40zM984.003 874c-22.098 0-40.004-17.908-40.004-39.999v-111.072c-93.102 146.016-255.7 237.072-431.998 237.072-136.76 0-265.334-53.258-362.040-149.96-96.702-96.706-149.96-225.28-149.96-362.040s53.258-265.332 149.96-362.039c96.706-96.707 225.28-149.961 362.040-149.961 0.338 0 0.664 0.041 1 0.048 0.336-0.007 0.662-0.048 1-0.048 14.416 0 28.974 0.608 43.274 1.802 22.014 1.843 38.366 21.183 36.524 43.199-1.846 22.016-21.16 38.373-43.2 36.523-12.088-1.010-24.4-1.522-36.598-1.522-0.338 0-0.664-0.041-1-0.055-0.336 0.014-0.662 0.055-1 0.055-238.206 0-432 193.795-432 431.998 0 238.206 193.793 432 432 432 153.516 0 294.714-81.826 371.869-211.999h-109.984c-22.091 0-39.997-17.908-39.997-40s17.906-40 39.997-40h122.115c24.358 0 47.152 6.846 66.553 18.706 1.249 0.712 2.451 1.479 3.591 2.305 34.816 22.901 57.856 62.295 57.856 106.99v118c0 22.092-17.906 39.999-39.997 39.999z" />
<glyph unicode="&#xe934;" glyph-name="time-2" horiz-adv-x="751" d="M610.133 616.51v258.157h64c23.552 0 42.667 19.115 42.667 42.667s-19.115 42.667-42.667 42.667h-597.333c-23.552 0-42.667-19.115-42.667-42.667s19.115-42.667 42.667-42.667h64v-258.157c0-67.364 39.792-128.593 101.354-155.989l28.25-12.521-28.25-12.562c-61.562-27.354-101.354-88.584-101.354-155.948v-258.157h-64c-23.552 0-42.667-19.115-42.667-42.667s19.115-42.667 42.667-42.667h597.333c23.552 0 42.667 19.115 42.667 42.667s-19.115 42.667-42.667 42.667h-64v258.157c0 67.364-39.792 128.593-101.354 155.989l-28.25 12.521 28.25 12.562c61.562 27.354 101.354 88.584 101.354 155.948zM232.425 21.333c18.417 61.617 75.542 106.667 143.042 106.667s124.625-45.049 143.042-106.667h-286.084zM524.8 279.49v-119.937c-40.594 33.58-92.646 53.78-149.333 53.78s-108.739-20.2-149.333-53.78v119.937c0 33.687 19.885 64.323 50.667 77.969l98.666 43.864 98.666-43.844c30.781-13.687 50.667-44.302 50.667-77.989zM474.133 538.541l-98.666-43.864-98.666 43.844c-30.781 13.687-50.667 44.302-50.667 77.989v258.157h298.667v-258.157c0-33.687-19.885-64.302-50.667-77.969z" />
<glyph unicode="&#xe935;" glyph-name="info" horiz-adv-x="973" d="M660.977 428.001c0 22.091-17.905 39.998-39.997 39.998h-392.002c-22.092 0-40-17.908-40-39.998 0-22.093 17.908-40.003 40-40.003h392.002c22.093 0 39.997 17.91 39.997 40.003zM228.978 307.999c-22.092 0-40-17.905-40-39.997s17.908-40.003 40-40.003h230.222c22.092 0 40 17.91 40 40.003s-17.908 39.997-40 39.997h-230.222zM322.978 16h-133.778c-44.112 0-80 35.886-80 80v704c0 44.112 35.888 80 80 80h491.781c44.109 0 80-35.888 80-80v-246c0-22.092 17.905-40 39.997-40s40.003 17.908 40.003 40v246c0 88.224-71.777 160-160 160h-491.781c-88.224 0-160-71.776-160-160v-704c0-88.223 71.776-160 160-160h133.778c22.092 0 40 17.91 40 39.997 0 22.093-17.908 40.003-40 40.003zM911.826 380.856c-46.787 46.787-122.916 46.792-169.672 0.031l-219.607-219.121c-4.664-4.654-8.105-10.383-10.020-16.686l-47.825-157.45c-4.24-13.962-0.546-29.123 9.642-39.562 7.632-7.823 18-12.068 28.634-12.068 3.558 0 7.15 0.476 10.676 1.454l161.449 44.723c6.646 1.838 12.703 5.366 17.582 10.235l219.146 218.737c46.787 46.787 46.787 122.916-0.005 169.708zM643.61 56.463l-81.224-22.497 23.772 78.254 148.178 147.85 56.581-56.576-147.308-147.031zM855.291 267.74l-7.752-7.736-56.571 56.571 7.726 7.711c15.596 15.596 40.97 15.596 56.566 0s15.596-40.975 0.031-56.545zM522.061 714h-172.001c-22.092 0-40-17.908-40-40s17.908-40 40-40h172.001c22.093 0 39.997 17.908 39.997 40s-17.905 40-39.997 40zM476.060 588v172c0 22.092-17.908 40-40 40s-40-17.908-40-40v-172c0-22.092 17.908-40 40-40s40 17.908 40 40z" />
<glyph unicode="&#xe936;" glyph-name="menu" d="M56.889 846.222h170.667c31.419 0 56.889-25.47 56.889-56.889s-25.47-56.889-56.889-56.889h-170.667c-31.419 0-56.889 25.47-56.889 56.889s25.47 56.889 56.889 56.889zM455.111 846.222h512c31.419 0 56.889-25.47 56.889-56.889s-25.47-56.889-56.889-56.889h-512c-31.419 0-56.889 25.47-56.889 56.889s25.47 56.889 56.889 56.889zM56.889 504.889h170.667c31.419 0 56.889-25.47 56.889-56.889s-25.47-56.889-56.889-56.889h-170.667c-31.419 0-56.889 25.47-56.889 56.889s25.47 56.889 56.889 56.889zM455.111 504.889h512c31.419 0 56.889-25.47 56.889-56.889s-25.47-56.889-56.889-56.889h-512c-31.419 0-56.889 25.47-56.889 56.889s25.47 56.889 56.889 56.889zM56.889 163.556h170.667c31.419 0 56.889-25.47 56.889-56.889s-25.47-56.889-56.889-56.889h-170.667c-31.419 0-56.889 25.47-56.889 56.889s25.47 56.889 56.889 56.889zM455.111 163.556h512c31.419 0 56.889-25.47 56.889-56.889s-25.47-56.889-56.889-56.889h-512c-31.419 0-56.889 25.47-56.889 56.889s25.47 56.889 56.889 56.889z" />
<glyph unicode="&#xe937;" glyph-name="resize" d="M382.284 634.284l-245.714 245.716h157.43c22.092 0 40 17.908 40 40s-17.908 40-40 40h-174c-66.168 0-120-53.832-120-120v-174c0-22.092 17.908-40 40-40s40 17.908 40 40v157.43l245.716-245.716c7.81-7.81 18.046-11.714 28.284-11.714s20.474 3.904 28.284 11.714c15.622 15.622 15.622 40.95 0 56.57zM382.284 318.285c-15.622 15.621-40.948 15.621-56.568 0l-245.716-245.714v157.43c0 22.093-17.908 39.997-40 39.997s-40-17.905-40-39.997v-173.998c0-66.171 53.832-120.003 120-120.003h174c22.092 0 40 17.91 40 39.997 0 22.093-17.908 40.003-40 40.003h-157.43l245.714 245.714c15.622 15.621 15.622 40.95 0 56.571zM984.003 269.998c-22.093 0-40.003-17.905-40.003-39.997v-157.43l-245.714 245.714c-15.626 15.621-40.95 15.621-56.571 0s-15.621-40.95 0-56.571l245.714-245.714h-157.43c-22.093 0-39.997-17.91-39.997-40.003 0-22.088 17.905-39.997 39.997-39.997h173.998c66.171 0 120.003 53.832 120.003 120.003v173.998c0 22.093-17.91 39.997-39.997 39.997zM903.997 960h-173.998c-22.093 0-39.997-17.908-39.997-40s17.905-40 39.997-40h157.43l-245.714-245.714c-15.621-15.622-15.621-40.95 0-56.57 7.813-7.812 18.048-11.716 28.283-11.716 10.24 0 20.475 3.904 28.288 11.714l245.714 245.716v-157.43c0-22.092 17.91-40 40.003-40 22.088 0 39.997 17.908 39.997 40v174c0 66.168-53.832 120-120.003 120z" />
<glyph unicode="&#xe938;" glyph-name="setting" horiz-adv-x="1065" d="M1048.67 525.66c-2.478 15.995-13.746 29.34-29.295 34.741l-82.383 28.683c-4.874 13.516-10.404 26.656-16.531 39.367l37.495 77.254c7.074 14.568 5.394 31.798-4.379 44.827-31.597 42.083-69.353 79.052-112.218 109.851-13.316 9.573-30.851 11.201-45.761 4.255l-78.848-36.682c-12.984 6-26.419 11.4-40.235 16.172l-29.307 80.68c-5.517 15.197-19.112 26.198-35.41 28.654-57.917 8.715-100.782 8.715-158.786 0-16.282-2.456-29.897-13.457-35.41-28.654l-29.306-80.68c-13.815-4.772-27.253-10.172-40.223-16.172l-78.88 36.682c-14.878 6.94-32.445 5.313-45.751-4.255-42.863-30.799-80.62-67.769-112.219-109.851-9.777-13.028-11.451-30.253-4.375-44.827l37.492-77.254c-6.128-12.688-11.643-25.857-16.528-39.367l-82.397-28.713c-15.538-5.401-26.785-18.741-29.282-34.712-4.495-28.914-6.596-53.567-6.596-77.685 0-24.080 2.101-48.771 6.596-77.681 2.479-15.999 13.744-29.344 29.294-34.746l82.384-28.68c4.885-13.541 10.419-26.685 16.528-39.399l-37.492-77.222c-7.076-14.569-5.396-31.801 4.363-44.798 31.556-42.054 69.313-79.024 112.23-109.883 13.306-9.572 30.873-11.227 45.763-4.252l78.85 36.68c12.981-6.001 26.419-11.399 40.235-16.171l29.304-80.679c5.517-15.2 19.112-26.198 35.41-28.656 28.979-4.37 54.94-6.488 79.393-6.488 24.449 0 50.418 2.118 79.389 6.488 16.294 2.458 29.893 13.455 35.41 28.656l29.307 80.679c13.816 4.772 27.251 10.17 40.235 16.171l78.848-36.68c14.909-6.971 32.473-5.313 45.781 4.252 42.967 30.913 80.72 67.883 112.218 109.883 9.757 12.997 11.44 30.228 4.362 44.798l-37.491 77.222c6.128 12.714 11.653 25.887 16.527 39.399l82.383 28.68c15.553 5.403 26.817 18.743 29.295 34.746 4.497 28.91 6.599 53.592 6.599 77.681s-2.097 48.775-6.59 77.685zM963.469 409.244l-77.287-26.915c-13.509-4.686-23.9-15.426-27.967-28.914-6.902-22.856-15.991-44.478-27.034-64.307-6.853-12.341-7.279-27.144-1.122-39.825l35.058-72.196c-16.937-19.915-35.668-38.285-56.037-54.85l-73.72 34.284c-12.968 6.087-28.037 5.599-40.661-1.090-20.279-10.801-42.377-19.685-65.737-26.456-13.742-3.973-24.711-14.139-29.508-27.365l-27.501-75.71c-28.070-2.798-51.032-2.798-79.102 0l-27.501 75.71c-4.801 13.197-15.77 23.4-29.508 27.365-23.372 6.771-45.487 15.655-65.737 26.456-12.621 6.742-27.722 7.172-40.661 1.090l-73.718-34.316c-20.352 16.605-39.083 34.943-56.037 54.882l35.056 72.196c6.158 12.685 5.732 27.484-1.122 39.825-11.013 19.767-20.106 41.423-27.032 64.336-4.069 13.459-14.47 24.199-27.967 28.885l-77.289 26.915c-1.459 13.767-2.161 26.456-2.161 38.74 0 12.28 0.702 24.936 2.161 38.707l77.307 26.939c13.492 4.682 23.88 15.426 27.949 28.881 6.914 22.856 16.006 44.511 27.032 64.368 6.854 12.311 7.28 27.144 1.122 39.796l-35.056 72.194c16.967 19.939 35.698 38.309 56.037 54.881l73.748-34.313c12.909-6.088 28.069-5.6 40.661 1.087 20.238 10.801 42.335 19.687 65.707 26.456 13.742 3.973 24.715 14.168 29.508 27.367l27.501 75.708c27.808 2.827 50.811 2.827 79.102 0l27.501-75.708c4.801-13.199 15.77-23.4 29.508-27.367 23.372-6.77 45.486-15.655 65.737-26.456 12.624-6.74 27.693-7.169 40.661-1.087l73.72 34.313c20.341-16.572 39.072-34.942 56.037-54.881l-35.058-72.194c-6.156-12.658-5.73-27.485 1.122-39.796 11.063-19.916 20.148-41.542 27.034-64.335 4.067-13.488 14.459-24.232 27.967-28.914l77.287-26.915c1.458-13.771 2.163-26.456 2.163-38.74 0-12.28-0.705-24.965-2.163-38.732zM532.402 661.455c-114.401 0-207.482-91.134-207.482-203.162 0-112.026 93.073-203.158 207.482-203.158s207.483 91.132 207.483 203.158c0 112.028-93.078 203.162-207.483 203.162zM532.402 342.901c-64.979 0-117.846 51.769-117.846 115.393 0 63.627 52.867 115.395 117.846 115.395s117.85-51.768 117.85-115.395c0-63.623-52.871-115.393-117.85-115.393z" />
<glyph unicode="&#xe939;" glyph-name="user" horiz-adv-x="866" d="M637.395 474.11c25.752 38.209 40.805 84.164 40.805 133.592v79.852c0 132.115-107.44 239.556-239.556 239.556s-239.556-107.441-239.556-239.556v-79.852c0-49.429 15.053-95.383 40.806-133.592-119.619-68.992-200.509-197.793-200.509-345.52v-39.928c0-66.032 53.741-119.776 119.778-119.776h558.965c66.037 0 119.78 53.744 119.78 119.776v39.928c-0.008 147.727-80.894 276.527-200.513 345.52zM278.941 687.555c0 88.076 71.627 159.703 159.703 159.703s159.704-71.627 159.704-159.703v-79.852c0-88.077-71.627-159.704-159.704-159.704s-159.703 71.627-159.703 159.704v79.852zM758.053 88.663c0-22-17.928-39.92-39.926-39.92h-558.965c-22 0-39.926 17.928-39.926 39.92v39.928c0 125.327 72.586 233.965 177.91 286.229 39.727-29.186 88.556-46.674 141.497-46.674s101.772 17.488 141.497 46.674c105.325-52.263 177.91-160.901 177.91-286.229v-39.928h0.002z" />
<glyph unicode="&#xe93a;" glyph-name="user-2" horiz-adv-x="819" d="M819.2-12.8c0-28.212-22.988-51.2-51.198-51.2h-716.803c-28.212 0-51.199 22.99-51.199 51.2v51.198c0 160.718 93.082 300.032 228.147 367.054 50.945-37.426 113.562-59.852 181.453-59.852s130.51 22.426 181.453 59.852c135.063-67.020 228.145-206.334 228.145-367.054l0.002-51.198zM204.8 755.2c0 112.947 91.853 204.8 204.8 204.8 112.945 0 204.8-91.853 204.8-204.8v-102.4c0-112.947-91.855-204.8-204.8-204.8-112.947 0-204.8 91.853-204.8 204.8v102.4z" />
<glyph unicode="&#xe93b;" glyph-name="arrow-sq" d="M45.053 734.63c-24.869 0-45.053 20.196-45.053 45.079v45.071c0 74.551 60.634 135.22 135.142 135.22h45.052c24.861 0 45.045-20.196 45.045-45.071 0-24.883-20.184-45.079-45.045-45.079h-45.052c-24.82 0-45.045-20.237-45.045-45.070v-45.071c0-24.883-20.184-45.079-45.044-45.079zM855.905 734.63c-24.873 0-45.056 20.196-45.056 45.079v45.071c0 24.834-20.224 45.070-45.041 45.070h-45.046c-24.868 0-45.056 20.196-45.056 45.079 0 24.875 20.188 45.071 45.056 45.071h45.046c74.506 0 135.137-60.669 135.137-135.22v-45.071c0-24.883-20.183-45.079-45.041-45.079zM540.57 869.85h-180.189c-24.869 0-45.045 20.196-45.045 45.079 0 24.875 20.176 45.071 45.045 45.071h180.189c24.868 0 45.051-20.196 45.051-45.071 0-24.883-20.183-45.079-45.051-45.079zM450.478 58.527h-90.097c-24.869 0-45.045 20.198-45.045 45.082 0 24.873 20.176 45.071 45.045 45.071h90.097c24.861 0 45.045-20.198 45.045-45.071 0-24.883-20.184-45.082-45.045-45.082zM180.194 58.527h-45.052c-74.508 0-135.142 60.672-135.142 135.224v45.076c0 24.873 20.184 45.071 45.053 45.071 24.861 0 45.044-20.198 45.044-45.071v-45.076c0-24.837 20.225-45.071 45.045-45.071h45.052c24.861 0 45.045-20.198 45.045-45.071 0-24.883-20.184-45.082-45.045-45.082zM45.053 374.047c-24.869 0-45.053 20.188-45.053 45.071v180.292c0 24.883 20.184 45.079 45.053 45.079 24.861 0 45.044-20.196 45.044-45.079v-180.292c0-24.883-20.184-45.071-45.044-45.071zM855.905 464.189c-24.873 0-45.056 20.195-45.056 45.079v90.141c0 24.883 20.183 45.079 45.056 45.079 24.858 0 45.041-20.196 45.041-45.079v-90.141c0-24.884-20.183-45.079-45.041-45.079zM395.588 505.723l225.668-541.916c17.428-41.856 78.73-34.78 86.18 9.943l39.834 239.14 239.002 39.859c44.698 7.45 51.768 68.792 9.938 86.231l-541.601 225.797c-37.199 15.511-74.521-21.833-59.020-59.054zM816.594 316.017l-115.963-19.338c-19.021-3.174-33.93-18.089-37.1-37.12l-19.328-116.029-123.136 295.695 295.526-123.208z" />
<glyph unicode="&#xe93c;" glyph-name="upload" d="M349.706 669.836l109.328 109.327v-578.336c0-14.049 5.58-27.518 15.513-37.451s23.405-15.517 37.452-15.517c14.047 0 27.519 5.584 37.452 15.517s15.514 23.402 15.514 37.451v578.336l109.327-109.327c4.913-4.94 10.751-8.862 17.188-11.542 6.431-2.679 13.326-4.064 20.296-4.073 6.963-0.010 13.865 1.356 20.303 4.018 6.444 2.662 12.295 6.568 17.217 11.495 4.929 4.927 8.834 10.778 11.496 17.217s4.028 13.34 4.021 20.308c-0.014 6.967-1.393 13.865-4.076 20.296-2.676 6.432-6.601 12.272-11.544 17.185l-199.74 199.746c-4.919 4.919-10.757 8.82-17.184 11.482s-13.313 4.032-20.269 4.032c-6.956 0-13.844-1.37-20.27-4.032s-12.265-6.564-17.183-11.482l-199.744-199.746c-4.94-4.914-8.862-10.753-11.542-17.185s-4.064-13.329-4.073-20.296c-0.010-6.968 1.356-13.869 4.017-20.308s6.569-12.289 11.495-17.217c4.927-4.927 10.777-8.833 17.216-11.495s13.341-4.028 20.308-4.018c6.968 0.010 13.865 1.394 20.297 4.073s12.272 6.601 17.185 11.542zM971.032 500.965c-14.049 0-27.518-5.581-37.451-15.514s-15.51-23.405-15.51-37.452v-406.070h-812.14v406.070c0 14.047-5.58 27.519-15.513 37.452s-23.405 15.514-37.452 15.514c-14.047 0-27.519-5.581-37.452-15.514s-15.513-23.405-15.513-37.452v-423.724c0-23.415 9.3-45.868 25.855-62.423s39.008-25.853 62.42-25.853h847.449c23.409 0 45.862 9.298 62.416 25.853s25.859 39.008 25.859 62.423v423.724c0 14.047-5.584 27.519-15.517 37.452s-23.402 15.514-37.451 15.514z" />
<glyph unicode="&#xe93d;" glyph-name="comment" d="M479.512 562.651c20.773 0 37.609-16.836 37.609-37.609s-16.836-37.609-37.609-37.609c-20.773 0-37.608 16.836-37.608 37.609s16.835 37.609 37.608 37.609zM611.144 525.042c0-20.773 16.836-37.609 37.609-37.609s37.608 16.836 37.608 37.609c0 20.773-16.835 37.609-37.608 37.609s-37.609-16.836-37.609-37.609zM272.664 525.042c0-20.773 16.835-37.609 37.608-37.609s37.609 16.836 37.609 37.609c0 20.773-16.836 37.609-37.609 37.609s-37.608-16.836-37.608-37.609zM929.713 172.342c44.016-44.011 44.016-115.588 0.024-159.581-21.992-21.992-50.885-32.996-79.777-32.996s-57.785 11.004-79.779 32.996l-206.452 205.989c-4.385 4.378-7.617 9.762-9.417 15.697l-44.969 148.033c-3.989 13.127-0.514 27.377 9.064 37.198 9.578 9.813 23.74 13.633 36.962 9.975l151.795-42.045c6.25-1.733 11.944-5.046 16.534-9.63l206.015-205.637zM623.536 265.335l139.322-139.013 53.2 53.196-138.503 138.234-76.364 21.155 22.345-73.573zM876.552 119.131l-7.263 7.247-53.185-53.185 7.239-7.215c14.69-14.698 38.542-14.698 53.209-0.032s14.667 38.526 0 53.185zM502.313 163.147c-6.948-0.299-13.985-0.457-20.92-0.457-60.476 0-118.696 11.26-173.038 33.465-9.255 3.776-19.642 3.717-28.853-0.169l-171.245-72.287 57.699 136.678c5.641 13.361 3.092 28.787-6.56 39.629-55.069 61.864-84.179 135.884-84.179 214.040 0 194.773 182.212 353.237 406.176 353.237s406.178-158.464 406.178-353.237c0-46.189-11.343-92.56-33.721-137.816-9.2-18.62-1.568-41.178 17.054-50.382s41.173-1.571 50.381 17.049c27.538 55.716 41.504 113.297 41.504 171.15 0 236.253-215.951 428.454-481.395 428.454-265.437 0-481.393-192.202-481.393-428.454 0-89.174 30.234-173.625 87.698-245.647l-84.737-200.72c-5.95-14.1-2.762-30.397 8.058-41.22 7.199-7.2 16.814-11.020 26.598-11.020 4.929 0 9.902 0.977 14.618 2.962l242.445 102.345c59.13-22.087 121.869-33.272 186.715-33.272 8.021 0 16.167 0.181 24.211 0.528 20.751 0.914 36.837 18.464 35.927 39.219-0.903 20.748-18.496 36.888-39.218 35.927z" />
<glyph unicode="&#xe93e;" glyph-name="edit" d="M790.804 443.62c-18.987 0-34.38-15.394-34.38-34.384v-343.826c0-18.991-15.394-34.383-34.384-34.383h-618.891c-18.99 0-34.384 15.392-34.384 34.383v687.656c0 18.99 15.393 34.384 34.384 34.384h412.595c18.99 0 34.384 15.394 34.384 34.384s-15.394 34.382-34.384 34.382h-412.595c-56.968 0-103.149-46.182-103.149-103.149v-687.656c0-56.966 46.181-103.148 103.149-103.148h618.892c56.967 0 103.145 46.182 103.145 103.148v343.828c0 18.988-15.392 34.382-34.383 34.382zM924.192 886.424c-24.686 24.691-58.171 38.56-93.089 38.556-34.934 0.101-68.452-13.792-93.071-38.578l-452.894-452.856c-3.757-3.785-6.591-8.387-8.286-13.444l-68.766-206.297c-6.001-18.017 3.739-37.486 21.756-43.483 3.496-1.166 7.156-1.764 10.839-1.764 3.691 0.008 7.359 0.599 10.865 1.749l206.298 68.768c5.066 1.693 9.67 4.541 13.444 8.32l452.888 452.892c51.405 51.398 51.413 134.735 0.016 186.138zM875.559 748.872l-446.976-446.978-133.544-44.594 44.457 133.372 447.15 446.977c24.582 24.533 64.4 24.493 88.937-0.089 11.721-11.743 18.322-27.641 18.369-44.231 0.047-16.679-6.577-32.683-18.393-44.457z" />
<glyph unicode="&#xe93f;" glyph-name="eye-2" horiz-adv-x="1434" d="M1408.829 407.387c13.312 18.239 12.739 43.137-1.454 60.798-214.528 263.747-446.138 397.502-688.752 397.502-411.399 0-697.15-383.317-709.020-399.529-13.318-18.239-12.739-43.138 1.448-60.798 214.241-264.037 445.852-397.793 688.464-397.793 411.401 0 697.148 383.317 709.314 399.82zM699.516 106.871c-202.080 0-398.95 111.174-585.976 330.046 73.247 86.565 306.016 329.467 605.084 329.467 202.081 0 398.949-111.174 585.973-330.045-73.247-86.565-306.012-329.468-605.081-329.468zM709.070 688.795c-138.966 0-252.166-113.2-252.166-252.167s113.2-252.166 252.166-252.166c138.967 0 252.167 113.2 252.167 252.166s-113.2 252.167-252.167 252.167zM709.070 283.765c-84.249 0-152.863 68.614-152.863 152.863s68.614 152.864 152.863 152.864c84.249 0 152.864-68.615 152.864-152.864s-68.615-152.863-152.864-152.863z" />
<glyph unicode="&#xe940;" glyph-name="whatsapp" d="M377.981 734.6c-8.844 19.592-18.151 20.262-26.562 20.6h-22.624c-7.875 0-20.664-2.945-31.476-14.718-10.82-11.773-41.319-40.232-41.319-98.12s42.303-113.831 48.202-121.689c5.906-7.843 81.669-130.43 201.65-177.592 99.718-39.193 120.012-31.397 141.652-29.428 21.647 1.953 69.849 28.451 79.679 55.927 9.844 27.467 9.844 51.013 6.888 55.935-2.942 4.898-10.82 7.843-22.624 13.726-11.81 5.883-69.669 34.838-80.489 38.76s-18.687 5.883-26.562-5.898c-7.875-11.765-31.058-38.973-37.949-46.816-6.883-7.867-13.773-8.843-25.577-2.961-11.804 5.906-49.437 18.545-94.536 58.62-35.099 31.192-59.447 70.96-66.337 82.741-6.891 11.765-0.741 18.144 5.181 24.010 5.3 5.269 12.474 12.474 18.38 19.341 5.89 6.867 7.576 11.773 11.505 19.624 3.937 7.851 1.969 14.718-0.977 20.608-2.953 5.883-25.609 64.070-36.106 87.332zM815.145 960h-662.381c-84.249 0-152.764-68.515-152.764-152.764v-833.047c0-14.814 8.555-28.337 21.998-34.598 5.118-2.369 10.693-3.591 16.193-3.591 8.784 0 17.491 3.058 24.442 8.861l218.53 182.095h533.982c84.248 0 152.76 68.512 152.76 152.764v527.516c0 84.249-68.512 152.764-152.76 152.764zM891.522 279.72c0-42.084-34.215-76.381-76.377-76.381h-547.807c-8.937 0-17.568-3.133-24.442-8.861l-166.513-138.786v751.544c0 42.086 34.219 76.382 76.382 76.382h662.381c42.161 0 76.377-34.296 76.377-76.382v-527.516z" />
<glyph unicode="&#xe941;" glyph-name="woman" d="M894.252 212.617c-36.031 59.324-84.48 109.858-141.708 148.212v326.96c0 72.862-28.023 141.313-78.914 192.746-100.519 105.949-282.865 105.961-383.382-0.004-50.886-51.431-78.911-119.882-78.911-192.744v-175.029c0-47.568 12.354-92.299 33.997-131.182-160.213-87.397-254.284-264.252-244.663-445.575h962.563c3.734 96.823-17.9 193.836-68.983 276.617zM271.37 687.788c-0.264 188.132 226.414 284.176 359.591 150.523 39.69-40.117 61.55-93.574 61.55-150.523v-182.286c-14.066 6.905-29.87 10.798-46.569 10.798h-43.971c18.886 25.101 30.097 56.287 30.097 90.046v96.050c0 82.753-67.325 150.078-150.077 150.078s-150.078-67.325-150.078-150.078v-96.050c0-82.061 66.21-148.909 148.009-150.026v-0.053h166.020c25.379 0 46.023-20.645 46.023-46.023v-24.867c-49.374 6.746-78.591-18.371-102.9-39.29-26.231-22.574-51.011-43.899-107.124-43.899-116.108 0-210.569 94.461-210.569 210.569l-0.002 175.031zM391.942 606.348v89.034c37.612-18.337 96.1-37.565 180.094-41.645v-47.387c-4.949-119.47-175.171-119.416-180.094-0.002zM408.515 754.355c46.938 66.559 152.239 40.561 162.762-40.465-81.768 4.504-133.937 24.783-162.762 40.465zM61.789-3.966c9.631 140.431 93.322 270.104 218.665 336.302 88.762-102.059 258.090-123.631 347.765-31.747 27.378 23.556 38.962 33.49 75.651 20.115 115.043-69.865 188.662-190.547 198.26-324.67h-840.341zM616.038 333.287v-112.001c-93.997-34.789-71.47-173.001 30.015-174.92 101.5 1.925 123.994 140.151 30.011 174.92v112.001h-60.027zM646.052 106.394c16.549 0 30.013 13.462 30.013 30.017 0 16.548-13.464 30.010-30.013 30.010-39.806-1.638-39.818-58.375 0-60.027zM281.851 336v-157.674c-34.933-12.254-60.027-45.24-60.027-83.934v-48.026h60.027v48.026c0 15.995 13.464 29.013 30.014 29.013s30.013-13.018 30.013-29.013v-48.026h60.027v48.026c0 38.694-25.093 71.68-60.027 83.934v157.674h-60.028z" />
<glyph unicode="&#xea56;" glyph-name="circle" d="M512 960c-282.334 0-512-229.688-512-512s229.666-512 512-512 512 229.688 512 512-229.666 512-512 512zM512-21.334c-258.792 0-469.334 210.542-469.334 469.334s210.542 469.334 469.334 469.334 469.334-210.542 469.334-469.334-210.542-469.334-469.334-469.334z" />
</font>
</defs>
</svg>
